G04 #@! TF.GenerationSoftware,KiCad,Pcbnew,9.0.7*
G04 #@! TF.CreationDate,2026-03-20T14:30:59+05:30*
G04 #@! TF.ProjectId,SPO2_Module,53504f32-5f4d-46f6-9475-6c652e6b6963,rev?*
G04 #@! TF.SameCoordinates,Original*
G04 #@! TF.FileFunction,Copper,L2,Bot*
G04 #@! TF.FilePolarity,Positive*
%FSLAX46Y46*%
G04 Gerber Fmt 4.6, Leading zero omitted, Abs format (unit mm)*
G04 Created by KiCad (PCBNEW 9.0.7) date 2026-03-20 14:30:59*
%MOMM*%
%LPD*%
G01*
G04 APERTURE LIST*
G04 #@! TA.AperFunction,ComponentPad*
%ADD10C,1.524000*%
G04 #@! TD*
G04 #@! TA.AperFunction,ComponentPad*
%ADD11R,1.524000X1.524000*%
G04 #@! TD*
G04 #@! TA.AperFunction,ComponentPad*
%ADD12C,1.600000*%
G04 #@! TD*
G04 #@! TA.AperFunction,ComponentPad*
%ADD13C,1.800000*%
G04 #@! TD*
G04 #@! TA.AperFunction,ComponentPad*
%ADD14R,1.800000X1.800000*%
G04 #@! TD*
G04 #@! TA.AperFunction,ComponentPad*
%ADD15R,1.600000X1.600000*%
G04 #@! TD*
G04 #@! TA.AperFunction,ComponentPad*
%ADD16O,1.600000X1.600000*%
G04 #@! TD*
G04 #@! TA.AperFunction,ComponentPad*
%ADD17C,2.000000*%
G04 #@! TD*
G04 #@! TA.AperFunction,ViaPad*
%ADD18C,0.600000*%
G04 #@! TD*
G04 #@! TA.AperFunction,Conductor*
%ADD19C,0.400000*%
G04 #@! TD*
G04 #@! TA.AperFunction,Conductor*
%ADD20C,0.200000*%
G04 #@! TD*
G04 APERTURE END LIST*
D10*
X130683000Y-67437000D03*
X128143000Y-67437000D03*
X125603000Y-67437000D03*
D11*
X123063000Y-67437000D03*
D12*
X171500000Y-77400000D03*
X171500000Y-85020000D03*
D10*
X124460000Y-99060000D03*
X121920000Y-99060000D03*
X119380000Y-99060000D03*
X116840000Y-99060000D03*
D11*
X114300000Y-99060000D03*
D13*
X180340000Y-69850000D03*
D14*
X182880000Y-69850000D03*
D12*
X172720000Y-69850000D03*
X165100000Y-69850000D03*
D15*
X160020000Y-107950000D03*
D16*
X160020000Y-105410000D03*
X160020000Y-102870000D03*
X160020000Y-100330000D03*
X160020000Y-97790000D03*
X160020000Y-95250000D03*
X160020000Y-92710000D03*
X160020000Y-90170000D03*
X160020000Y-87630000D03*
X160020000Y-85090000D03*
X160020000Y-82550000D03*
X160020000Y-80010000D03*
X160020000Y-77470000D03*
X160020000Y-74930000D03*
X160020000Y-72390000D03*
X144780000Y-72390000D03*
X144780000Y-74930000D03*
X144780000Y-77470000D03*
X144780000Y-80010000D03*
X144780000Y-82550000D03*
X144780000Y-85090000D03*
X144780000Y-87630000D03*
X144780000Y-90170000D03*
X144780000Y-92710000D03*
X144780000Y-95250000D03*
X144780000Y-97790000D03*
X144780000Y-100330000D03*
X144780000Y-102870000D03*
X144780000Y-105410000D03*
X144780000Y-107950000D03*
D12*
X164900000Y-78700000D03*
X164900000Y-83700000D03*
D17*
X184150000Y-83530000D03*
X177650000Y-83530000D03*
X184150000Y-79030000D03*
X177650000Y-79030000D03*
X184150000Y-95250000D03*
X177650000Y-95250000D03*
X184150000Y-90750000D03*
X177650000Y-90750000D03*
D12*
X171700000Y-97520000D03*
X171700000Y-89900000D03*
X165100000Y-91480000D03*
X165100000Y-96480000D03*
X165400000Y-109000000D03*
X165400000Y-104000000D03*
X171800000Y-110720000D03*
X171800000Y-103100000D03*
D17*
X184150000Y-108930000D03*
X177650000Y-108930000D03*
X184150000Y-104430000D03*
X177650000Y-104430000D03*
D18*
X128400000Y-88600000D03*
X131100000Y-84200000D03*
X162800000Y-92700000D03*
X163400000Y-97800000D03*
D19*
X128143000Y-88343000D02*
X128143000Y-67437000D01*
X128400000Y-88600000D02*
X128143000Y-88343000D01*
X130683000Y-83783000D02*
X130683000Y-67437000D01*
X131100000Y-84200000D02*
X130683000Y-83783000D01*
X124460000Y-68580000D02*
X125603000Y-67437000D01*
X124460000Y-99060000D02*
X124460000Y-68580000D01*
D20*
X162800000Y-92700000D02*
X162800000Y-106400000D01*
X162800000Y-106400000D02*
X165400000Y-109000000D01*
X163400000Y-85200000D02*
X164900000Y-83700000D01*
X163400000Y-97800000D02*
X163400000Y-85200000D01*
X172801000Y-102099000D02*
X171800000Y-103100000D01*
X172801000Y-91001000D02*
X172801000Y-102099000D01*
X171700000Y-89900000D02*
X172801000Y-91001000D01*
X172601000Y-88999000D02*
X171700000Y-89900000D01*
X172601000Y-78501000D02*
X172601000Y-88999000D01*
X171500000Y-77400000D02*
X172601000Y-78501000D01*
G04 #@! TA.AperFunction,Conductor*
G36*
X186442539Y-65520185D02*
G01*
X186488294Y-65572989D01*
X186499500Y-65624500D01*
X186499500Y-113375500D01*
X186479815Y-113442539D01*
X186427011Y-113488294D01*
X186375500Y-113499500D01*
X111624500Y-113499500D01*
X111557461Y-113479815D01*
X111511706Y-113427011D01*
X111500500Y-113375500D01*
X111500500Y-110617648D01*
X170499500Y-110617648D01*
X170499500Y-110822351D01*
X170531522Y-111024534D01*
X170594781Y-111219223D01*
X170687715Y-111401613D01*
X170808028Y-111567213D01*
X170952786Y-111711971D01*
X171107749Y-111824556D01*
X171118390Y-111832287D01*
X171234607Y-111891503D01*
X171300776Y-111925218D01*
X171300778Y-111925218D01*
X171300781Y-111925220D01*
X171405137Y-111959127D01*
X171495465Y-111988477D01*
X171596557Y-112004488D01*
X171697648Y-112020500D01*
X171697649Y-112020500D01*
X171902351Y-112020500D01*
X171902352Y-112020500D01*
X172104534Y-111988477D01*
X172299219Y-111925220D01*
X172481610Y-111832287D01*
X172574590Y-111764732D01*
X172647213Y-111711971D01*
X172647215Y-111711968D01*
X172647219Y-111711966D01*
X172791966Y-111567219D01*
X172791968Y-111567215D01*
X172791971Y-111567213D01*
X172844732Y-111494590D01*
X172912287Y-111401610D01*
X173005220Y-111219219D01*
X173068477Y-111024534D01*
X173100500Y-110822352D01*
X173100500Y-110617648D01*
X173068477Y-110415466D01*
X173005220Y-110220781D01*
X173005218Y-110220778D01*
X173005218Y-110220776D01*
X172949938Y-110112284D01*
X172912287Y-110038390D01*
X172878562Y-109991971D01*
X172791971Y-109872786D01*
X172647213Y-109728028D01*
X172481613Y-109607715D01*
X172481612Y-109607714D01*
X172481610Y-109607713D01*
X172424653Y-109578691D01*
X172299223Y-109514781D01*
X172104534Y-109451522D01*
X171929995Y-109423878D01*
X171902352Y-109419500D01*
X171697648Y-109419500D01*
X171673329Y-109423351D01*
X171495465Y-109451522D01*
X171300776Y-109514781D01*
X171118386Y-109607715D01*
X170952786Y-109728028D01*
X170808028Y-109872786D01*
X170687715Y-110038386D01*
X170594781Y-110220776D01*
X170531522Y-110415465D01*
X170499500Y-110617648D01*
X111500500Y-110617648D01*
X111500500Y-98250135D01*
X113037500Y-98250135D01*
X113037500Y-99869870D01*
X113037501Y-99869876D01*
X113043908Y-99929483D01*
X113094202Y-100064328D01*
X113094206Y-100064335D01*
X113180452Y-100179544D01*
X113180455Y-100179547D01*
X113295664Y-100265793D01*
X113295671Y-100265797D01*
X113430517Y-100316091D01*
X113430516Y-100316091D01*
X113437444Y-100316835D01*
X113490127Y-100322500D01*
X115109872Y-100322499D01*
X115169483Y-100316091D01*
X115304331Y-100265796D01*
X115419546Y-100179546D01*
X115505796Y-100064331D01*
X115556091Y-99929483D01*
X115562500Y-99869873D01*
X115562499Y-99831197D01*
X115582182Y-99764161D01*
X115634985Y-99718405D01*
X115704143Y-99708460D01*
X115767699Y-99737483D01*
X115786817Y-99758312D01*
X115877019Y-99882464D01*
X116017536Y-100022981D01*
X116178306Y-100139787D01*
X116256333Y-100179544D01*
X116355367Y-100230005D01*
X116355370Y-100230006D01*
X116449866Y-100260709D01*
X116544364Y-100291413D01*
X116740639Y-100322500D01*
X116740640Y-100322500D01*
X116939360Y-100322500D01*
X116939361Y-100322500D01*
X117135636Y-100291413D01*
X117324632Y-100230005D01*
X117501694Y-100139787D01*
X117662464Y-100022981D01*
X117802981Y-99882464D01*
X117919787Y-99721694D01*
X117999515Y-99565218D01*
X118047490Y-99514423D01*
X118115311Y-99497628D01*
X118181446Y-99520165D01*
X118220484Y-99565218D01*
X118300213Y-99721694D01*
X118417019Y-99882464D01*
X118557536Y-100022981D01*
X118718306Y-100139787D01*
X118796333Y-100179544D01*
X118895367Y-100230005D01*
X118895370Y-100230006D01*
X118989866Y-100260709D01*
X119084364Y-100291413D01*
X119280639Y-100322500D01*
X119280640Y-100322500D01*
X119479360Y-100322500D01*
X119479361Y-100322500D01*
X119675636Y-100291413D01*
X119864632Y-100230005D01*
X120041694Y-100139787D01*
X120202464Y-100022981D01*
X120342981Y-99882464D01*
X120459787Y-99721694D01*
X120539796Y-99564667D01*
X120587769Y-99513872D01*
X120655590Y-99497077D01*
X120721725Y-99519614D01*
X120760765Y-99564668D01*
X120840641Y-99721432D01*
X120867730Y-99758715D01*
X120867731Y-99758716D01*
X121539000Y-99087447D01*
X121539000Y-99110160D01*
X121564964Y-99207061D01*
X121615124Y-99293940D01*
X121686060Y-99364876D01*
X121772939Y-99415036D01*
X121869840Y-99441000D01*
X121892553Y-99441000D01*
X121221283Y-100112268D01*
X121221283Y-100112269D01*
X121258567Y-100139358D01*
X121435562Y-100229542D01*
X121624477Y-100290924D01*
X121820679Y-100322000D01*
X122019321Y-100322000D01*
X122215520Y-100290924D01*
X122215523Y-100290924D01*
X122404437Y-100229542D01*
X122581425Y-100139362D01*
X122618716Y-100112268D01*
X121947448Y-99441000D01*
X121970160Y-99441000D01*
X122067061Y-99415036D01*
X122153940Y-99364876D01*
X122224876Y-99293940D01*
X122275036Y-99207061D01*
X122301000Y-99110160D01*
X122301000Y-99087447D01*
X122972268Y-99758715D01*
X122999364Y-99721422D01*
X123079234Y-99564669D01*
X123127208Y-99513872D01*
X123195029Y-99497077D01*
X123261164Y-99519614D01*
X123300203Y-99564667D01*
X123380213Y-99721694D01*
X123497019Y-99882464D01*
X123637536Y-100022981D01*
X123798306Y-100139787D01*
X123876333Y-100179544D01*
X123975367Y-100230005D01*
X123975370Y-100230006D01*
X124069866Y-100260709D01*
X124164364Y-100291413D01*
X124360639Y-100322500D01*
X124360640Y-100322500D01*
X124559360Y-100322500D01*
X124559361Y-100322500D01*
X124755636Y-100291413D01*
X124944632Y-100230005D01*
X125121694Y-100139787D01*
X125282464Y-100022981D01*
X125422981Y-99882464D01*
X125539787Y-99721694D01*
X125630005Y-99544632D01*
X125691413Y-99355636D01*
X125722500Y-99159361D01*
X125722500Y-98960639D01*
X125691413Y-98764364D01*
X125654517Y-98650808D01*
X125630006Y-98575370D01*
X125630005Y-98575367D01*
X125551752Y-98421789D01*
X125539787Y-98398306D01*
X125422981Y-98237536D01*
X125282464Y-98097019D01*
X125211613Y-98045542D01*
X125168949Y-97990214D01*
X125160500Y-97945226D01*
X125160500Y-68921518D01*
X125169145Y-68892074D01*
X125175668Y-68862092D01*
X125179422Y-68857076D01*
X125180185Y-68854479D01*
X125196810Y-68833846D01*
X125310067Y-68720588D01*
X125371386Y-68687106D01*
X125417137Y-68685799D01*
X125503639Y-68699500D01*
X125503641Y-68699500D01*
X125702360Y-68699500D01*
X125702361Y-68699500D01*
X125898636Y-68668413D01*
X126087632Y-68607005D01*
X126264694Y-68516787D01*
X126425464Y-68399981D01*
X126565981Y-68259464D01*
X126682787Y-68098694D01*
X126762515Y-67942218D01*
X126810490Y-67891423D01*
X126878311Y-67874628D01*
X126944446Y-67897165D01*
X126983484Y-67942218D01*
X127063213Y-68098694D01*
X127180019Y-68259464D01*
X127320536Y-68399981D01*
X127391384Y-68451455D01*
X127434051Y-68506784D01*
X127442500Y-68551773D01*
X127442500Y-88274006D01*
X127442500Y-88411994D01*
X127442500Y-88411996D01*
X127442499Y-88411996D01*
X127469418Y-88547322D01*
X127469421Y-88547332D01*
X127522222Y-88674807D01*
X127598887Y-88789545D01*
X127603928Y-88794586D01*
X127630808Y-88834814D01*
X127690604Y-88979176D01*
X127690609Y-88979185D01*
X127778210Y-89110288D01*
X127778213Y-89110292D01*
X127889707Y-89221786D01*
X127889711Y-89221789D01*
X128020814Y-89309390D01*
X128020827Y-89309397D01*
X128142747Y-89359897D01*
X128166503Y-89369737D01*
X128321153Y-89400499D01*
X128321156Y-89400500D01*
X128321158Y-89400500D01*
X128478844Y-89400500D01*
X128478845Y-89400499D01*
X128633497Y-89369737D01*
X128779179Y-89309394D01*
X128910289Y-89221789D01*
X129021789Y-89110289D01*
X129109394Y-88979179D01*
X129169737Y-88833497D01*
X129200500Y-88678842D01*
X129200500Y-88521158D01*
X129200500Y-88521155D01*
X129200499Y-88521153D01*
X129169737Y-88366503D01*
X129131424Y-88274006D01*
X129109397Y-88220827D01*
X129109390Y-88220814D01*
X129021789Y-88089711D01*
X129021786Y-88089707D01*
X128910294Y-87978215D01*
X128910288Y-87978210D01*
X128898606Y-87970404D01*
X128853803Y-87916791D01*
X128843500Y-87867304D01*
X128843500Y-68551773D01*
X128863185Y-68484734D01*
X128894614Y-68451455D01*
X128965464Y-68399981D01*
X129105981Y-68259464D01*
X129222787Y-68098694D01*
X129302515Y-67942218D01*
X129350490Y-67891423D01*
X129418311Y-67874628D01*
X129484446Y-67897165D01*
X129523484Y-67942218D01*
X129603213Y-68098694D01*
X129720019Y-68259464D01*
X129860536Y-68399981D01*
X129931384Y-68451455D01*
X129974051Y-68506784D01*
X129982500Y-68551773D01*
X129982500Y-83714006D01*
X129982500Y-83851994D01*
X129982500Y-83851996D01*
X129982499Y-83851996D01*
X130009418Y-83987322D01*
X130009421Y-83987332D01*
X130062222Y-84114807D01*
X130138887Y-84229545D01*
X130138888Y-84229546D01*
X130303928Y-84394585D01*
X130330808Y-84434814D01*
X130390602Y-84579172D01*
X130390609Y-84579185D01*
X130478210Y-84710288D01*
X130478213Y-84710292D01*
X130589707Y-84821786D01*
X130589711Y-84821789D01*
X130720814Y-84909390D01*
X130720827Y-84909397D01*
X130863461Y-84968477D01*
X130866503Y-84969737D01*
X130988868Y-84994077D01*
X131021153Y-85000499D01*
X131021156Y-85000500D01*
X131021158Y-85000500D01*
X131178844Y-85000500D01*
X131178845Y-85000499D01*
X131333497Y-84969737D01*
X131479179Y-84909394D01*
X131610289Y-84821789D01*
X131721789Y-84710289D01*
X131809394Y-84579179D01*
X131869737Y-84433497D01*
X131900500Y-84278842D01*
X131900500Y-84121158D01*
X131900500Y-84121155D01*
X131900499Y-84121153D01*
X131871967Y-83977715D01*
X131869737Y-83966503D01*
X131854818Y-83930485D01*
X131809397Y-83820827D01*
X131809390Y-83820814D01*
X131721789Y-83689711D01*
X131721786Y-83689707D01*
X131610292Y-83578213D01*
X131610288Y-83578210D01*
X131479185Y-83490609D01*
X131479175Y-83490604D01*
X131460047Y-83482681D01*
X131405644Y-83438840D01*
X131383579Y-83372546D01*
X131383500Y-83368120D01*
X131383500Y-72287648D01*
X143479500Y-72287648D01*
X143479500Y-72492351D01*
X143511522Y-72694534D01*
X143574781Y-72889223D01*
X143667715Y-73071613D01*
X143788028Y-73237213D01*
X143932786Y-73381971D01*
X144087749Y-73494556D01*
X144098390Y-73502287D01*
X144189840Y-73548883D01*
X144191080Y-73549515D01*
X144241876Y-73597490D01*
X144258671Y-73665311D01*
X144236134Y-73731446D01*
X144191080Y-73770485D01*
X144098386Y-73817715D01*
X143932786Y-73938028D01*
X143788028Y-74082786D01*
X143667715Y-74248386D01*
X143574781Y-74430776D01*
X143511522Y-74625465D01*
X143479500Y-74827648D01*
X143479500Y-75032351D01*
X143511522Y-75234534D01*
X143574781Y-75429223D01*
X143667715Y-75611613D01*
X143788028Y-75777213D01*
X143932786Y-75921971D01*
X144087749Y-76034556D01*
X144098390Y-76042287D01*
X144189840Y-76088883D01*
X144191080Y-76089515D01*
X144241876Y-76137490D01*
X144258671Y-76205311D01*
X144236134Y-76271446D01*
X144191080Y-76310485D01*
X144098386Y-76357715D01*
X143932786Y-76478028D01*
X143788028Y-76622786D01*
X143667715Y-76788386D01*
X143574781Y-76970776D01*
X143511522Y-77165465D01*
X143479500Y-77367648D01*
X143479500Y-77572351D01*
X143511522Y-77774534D01*
X143574781Y-77969223D01*
X143667715Y-78151613D01*
X143788028Y-78317213D01*
X143932786Y-78461971D01*
X144087749Y-78574556D01*
X144098390Y-78582287D01*
X144189840Y-78628883D01*
X144191080Y-78629515D01*
X144241876Y-78677490D01*
X144258671Y-78745311D01*
X144236134Y-78811446D01*
X144191080Y-78850485D01*
X144098386Y-78897715D01*
X143932786Y-79018028D01*
X143788028Y-79162786D01*
X143667715Y-79328386D01*
X143574781Y-79510776D01*
X143511522Y-79705465D01*
X143479500Y-79907648D01*
X143479500Y-80112351D01*
X143511522Y-80314534D01*
X143574781Y-80509223D01*
X143667715Y-80691613D01*
X143788028Y-80857213D01*
X143932786Y-81001971D01*
X144087749Y-81114556D01*
X144098390Y-81122287D01*
X144189840Y-81168883D01*
X144191080Y-81169515D01*
X144241876Y-81217490D01*
X144258671Y-81285311D01*
X144236134Y-81351446D01*
X144191080Y-81390485D01*
X144098386Y-81437715D01*
X143932786Y-81558028D01*
X143788028Y-81702786D01*
X143667715Y-81868386D01*
X143574781Y-82050776D01*
X143511522Y-82245465D01*
X143479500Y-82447648D01*
X143479500Y-82652351D01*
X143511522Y-82854534D01*
X143574781Y-83049223D01*
X143667715Y-83231613D01*
X143788028Y-83397213D01*
X143932786Y-83541971D01*
X144073941Y-83644524D01*
X144098390Y-83662287D01*
X144152205Y-83689707D01*
X144191080Y-83709515D01*
X144241876Y-83757490D01*
X144258671Y-83825311D01*
X144236134Y-83891446D01*
X144191080Y-83930485D01*
X144098386Y-83977715D01*
X143932786Y-84098028D01*
X143788028Y-84242786D01*
X143667715Y-84408386D01*
X143574781Y-84590776D01*
X143511522Y-84785465D01*
X143479500Y-84987648D01*
X143479500Y-85192351D01*
X143511522Y-85394534D01*
X143574781Y-85589223D01*
X143667715Y-85771613D01*
X143788028Y-85937213D01*
X143932786Y-86081971D01*
X144087749Y-86194556D01*
X144098390Y-86202287D01*
X144189840Y-86248883D01*
X144191080Y-86249515D01*
X144241876Y-86297490D01*
X144258671Y-86365311D01*
X144236134Y-86431446D01*
X144191080Y-86470485D01*
X144098386Y-86517715D01*
X143932786Y-86638028D01*
X143788028Y-86782786D01*
X143667715Y-86948386D01*
X143574781Y-87130776D01*
X143511522Y-87325465D01*
X143479500Y-87527648D01*
X143479500Y-87732351D01*
X143511522Y-87934534D01*
X143574781Y-88129223D01*
X143667715Y-88311613D01*
X143788028Y-88477213D01*
X143932786Y-88621971D01*
X144087749Y-88734556D01*
X144098390Y-88742287D01*
X144187543Y-88787713D01*
X144191080Y-88789515D01*
X144241876Y-88837490D01*
X144258671Y-88905311D01*
X144236134Y-88971446D01*
X144191080Y-89010485D01*
X144098386Y-89057715D01*
X143932786Y-89178028D01*
X143788028Y-89322786D01*
X143667715Y-89488386D01*
X143574781Y-89670776D01*
X143511522Y-89865465D01*
X143479500Y-90067648D01*
X143479500Y-90272351D01*
X143511522Y-90474534D01*
X143574781Y-90669223D01*
X143632715Y-90782923D01*
X143652834Y-90822409D01*
X143667715Y-90851613D01*
X143788028Y-91017213D01*
X143932786Y-91161971D01*
X144071180Y-91262518D01*
X144098390Y-91282287D01*
X144183408Y-91325606D01*
X144191080Y-91329515D01*
X144241876Y-91377490D01*
X144258671Y-91445311D01*
X144236134Y-91511446D01*
X144191080Y-91550485D01*
X144098386Y-91597715D01*
X143932786Y-91718028D01*
X143788028Y-91862786D01*
X143667715Y-92028386D01*
X143574781Y-92210776D01*
X143511522Y-92405465D01*
X143479500Y-92607648D01*
X143479500Y-92812351D01*
X143511522Y-93014534D01*
X143574781Y-93209223D01*
X143667715Y-93391613D01*
X143788028Y-93557213D01*
X143932786Y-93701971D01*
X144049060Y-93786447D01*
X144098390Y-93822287D01*
X144171291Y-93859432D01*
X144191080Y-93869515D01*
X144241876Y-93917490D01*
X144258671Y-93985311D01*
X144236134Y-94051446D01*
X144191080Y-94090485D01*
X144098386Y-94137715D01*
X143932786Y-94258028D01*
X143788028Y-94402786D01*
X143667715Y-94568386D01*
X143574781Y-94750776D01*
X143511522Y-94945465D01*
X143479500Y-95147648D01*
X143479500Y-95352351D01*
X143511522Y-95554534D01*
X143574781Y-95749223D01*
X143667715Y-95931613D01*
X143788028Y-96097213D01*
X143932786Y-96241971D01*
X144087749Y-96354556D01*
X144098390Y-96362287D01*
X144161645Y-96394517D01*
X144191080Y-96409515D01*
X144241876Y-96457490D01*
X144258671Y-96525311D01*
X144236134Y-96591446D01*
X144191080Y-96630485D01*
X144098386Y-96677715D01*
X143932786Y-96798028D01*
X143788028Y-96942786D01*
X143667715Y-97108386D01*
X143574781Y-97290776D01*
X143511522Y-97485465D01*
X143479500Y-97687648D01*
X143479500Y-97892351D01*
X143511522Y-98094534D01*
X143574781Y-98289223D01*
X143667715Y-98471613D01*
X143788028Y-98637213D01*
X143932786Y-98781971D01*
X144059907Y-98874328D01*
X144098390Y-98902287D01*
X144189840Y-98948883D01*
X144191080Y-98949515D01*
X144241876Y-98997490D01*
X144258671Y-99065311D01*
X144236134Y-99131446D01*
X144191080Y-99170485D01*
X144098386Y-99217715D01*
X143932786Y-99338028D01*
X143788028Y-99482786D01*
X143667715Y-99648386D01*
X143574781Y-99830776D01*
X143511522Y-100025465D01*
X143479500Y-100227648D01*
X143479500Y-100432351D01*
X143511522Y-100634534D01*
X143574781Y-100829223D01*
X143667715Y-101011613D01*
X143788028Y-101177213D01*
X143932786Y-101321971D01*
X144087749Y-101434556D01*
X144098390Y-101442287D01*
X144189840Y-101488883D01*
X144191080Y-101489515D01*
X144241876Y-101537490D01*
X144258671Y-101605311D01*
X144236134Y-101671446D01*
X144191080Y-101710485D01*
X144098386Y-101757715D01*
X143932786Y-101878028D01*
X143788028Y-102022786D01*
X143667715Y-102188386D01*
X143574781Y-102370776D01*
X143511522Y-102565465D01*
X143479500Y-102767648D01*
X143479500Y-102972351D01*
X143511522Y-103174534D01*
X143574781Y-103369223D01*
X143667715Y-103551613D01*
X143788028Y-103717213D01*
X143932786Y-103861971D01*
X144087749Y-103974556D01*
X144098390Y-103982287D01*
X144170424Y-104018990D01*
X144191629Y-104029795D01*
X144242425Y-104077770D01*
X144259220Y-104145591D01*
X144236682Y-104211726D01*
X144191629Y-104250765D01*
X144098650Y-104298140D01*
X143933105Y-104418417D01*
X143933104Y-104418417D01*
X143788417Y-104563104D01*
X143788417Y-104563105D01*
X143668140Y-104728650D01*
X143575244Y-104910970D01*
X143512009Y-105105586D01*
X143503391Y-105160000D01*
X144346988Y-105160000D01*
X144314075Y-105217007D01*
X144280000Y-105344174D01*
X144280000Y-105475826D01*
X144314075Y-105602993D01*
X144346988Y-105660000D01*
X143503391Y-105660000D01*
X143512009Y-105714413D01*
X143575244Y-105909029D01*
X143668140Y-106091349D01*
X143788417Y-106256894D01*
X143788417Y-106256895D01*
X143933104Y-106401582D01*
X144098652Y-106521861D01*
X144191628Y-106569234D01*
X144242425Y-106617208D01*
X144259220Y-106685029D01*
X144236683Y-106751164D01*
X144191630Y-106790203D01*
X144098388Y-106837713D01*
X143932786Y-106958028D01*
X143788028Y-107102786D01*
X143667715Y-107268386D01*
X143574781Y-107450776D01*
X143511522Y-107645465D01*
X143479500Y-107847648D01*
X143479500Y-108052351D01*
X143511522Y-108254534D01*
X143574781Y-108449223D01*
X143667715Y-108631613D01*
X143788028Y-108797213D01*
X143932786Y-108941971D01*
X144078852Y-109048092D01*
X144098390Y-109062287D01*
X144177022Y-109102352D01*
X144280776Y-109155218D01*
X144280778Y-109155218D01*
X144280781Y-109155220D01*
X144385137Y-109189127D01*
X144475465Y-109218477D01*
X144576557Y-109234488D01*
X144677648Y-109250500D01*
X144677649Y-109250500D01*
X144882351Y-109250500D01*
X144882352Y-109250500D01*
X145084534Y-109218477D01*
X145279219Y-109155220D01*
X145461610Y-109062287D01*
X145557901Y-108992328D01*
X145627213Y-108941971D01*
X145627215Y-108941968D01*
X145627219Y-108941966D01*
X145771966Y-108797219D01*
X145771968Y-108797215D01*
X145771971Y-108797213D01*
X145845894Y-108695465D01*
X145892287Y-108631610D01*
X145985220Y-108449219D01*
X146048477Y-108254534D01*
X146080500Y-108052352D01*
X146080500Y-107847648D01*
X146062107Y-107731522D01*
X146048477Y-107645465D01*
X145985218Y-107450776D01*
X145951503Y-107384607D01*
X145892287Y-107268390D01*
X145884556Y-107257749D01*
X145771971Y-107102786D01*
X145627213Y-106958028D01*
X145461611Y-106837713D01*
X145368369Y-106790203D01*
X145317574Y-106742229D01*
X145300779Y-106674407D01*
X145323317Y-106608273D01*
X145368371Y-106569234D01*
X145461347Y-106521861D01*
X145626894Y-106401582D01*
X145626895Y-106401582D01*
X145771582Y-106256895D01*
X145771582Y-106256894D01*
X145891859Y-106091349D01*
X145984755Y-105909029D01*
X146047990Y-105714413D01*
X146056609Y-105660000D01*
X145213012Y-105660000D01*
X145245925Y-105602993D01*
X145280000Y-105475826D01*
X145280000Y-105344174D01*
X145245925Y-105217007D01*
X145213012Y-105160000D01*
X146056609Y-105160000D01*
X146047990Y-105105586D01*
X145984755Y-104910970D01*
X145891859Y-104728650D01*
X145771582Y-104563105D01*
X145771582Y-104563104D01*
X145626895Y-104418417D01*
X145461349Y-104298140D01*
X145368370Y-104250765D01*
X145317574Y-104202790D01*
X145300779Y-104134969D01*
X145323316Y-104068835D01*
X145368370Y-104029795D01*
X145368920Y-104029515D01*
X145461610Y-103982287D01*
X145509712Y-103947339D01*
X145627213Y-103861971D01*
X145627215Y-103861968D01*
X145627219Y-103861966D01*
X145771966Y-103717219D01*
X145771968Y-103717215D01*
X145771971Y-103717213D01*
X145857697Y-103599219D01*
X145892287Y-103551610D01*
X145985220Y-103369219D01*
X146048477Y-103174534D01*
X146080500Y-102972352D01*
X146080500Y-102767648D01*
X146062683Y-102655156D01*
X146048477Y-102565465D01*
X145985218Y-102370776D01*
X145925098Y-102252786D01*
X145892287Y-102188390D01*
X145884556Y-102177749D01*
X145771971Y-102022786D01*
X145627213Y-101878028D01*
X145461614Y-101757715D01*
X145455006Y-101754348D01*
X145368917Y-101710483D01*
X145318123Y-101662511D01*
X145301328Y-101594690D01*
X145323865Y-101528555D01*
X145368917Y-101489516D01*
X145461610Y-101442287D01*
X145482770Y-101426913D01*
X145627213Y-101321971D01*
X145627215Y-101321968D01*
X145627219Y-101321966D01*
X145771966Y-101177219D01*
X145771968Y-101177215D01*
X145771971Y-101177213D01*
X145824732Y-101104590D01*
X145892287Y-101011610D01*
X145985220Y-100829219D01*
X146048477Y-100634534D01*
X146080500Y-100432352D01*
X146080500Y-100227648D01*
X146066144Y-100137007D01*
X146048477Y-100025465D01*
X145985218Y-99830776D01*
X145929636Y-99721692D01*
X145892287Y-99648390D01*
X145884556Y-99637749D01*
X145771971Y-99482786D01*
X145627213Y-99338028D01*
X145461614Y-99217715D01*
X145440704Y-99207061D01*
X145368917Y-99170483D01*
X145318123Y-99122511D01*
X145301328Y-99054690D01*
X145323865Y-98988555D01*
X145368917Y-98949516D01*
X145461610Y-98902287D01*
X145500093Y-98874328D01*
X145627213Y-98781971D01*
X145627215Y-98781968D01*
X145627219Y-98781966D01*
X145771966Y-98637219D01*
X145771968Y-98637215D01*
X145771971Y-98637213D01*
X145862963Y-98511971D01*
X145892287Y-98471610D01*
X145985220Y-98289219D01*
X146048477Y-98094534D01*
X146080500Y-97892352D01*
X146080500Y-97687648D01*
X146065396Y-97592284D01*
X146048477Y-97485465D01*
X145985218Y-97290776D01*
X145946845Y-97215466D01*
X145892287Y-97108390D01*
X145884556Y-97097749D01*
X145771971Y-96942786D01*
X145627213Y-96798028D01*
X145461614Y-96677715D01*
X145451930Y-96672781D01*
X145368917Y-96630483D01*
X145318123Y-96582511D01*
X145301328Y-96514690D01*
X145323865Y-96448555D01*
X145368917Y-96409516D01*
X145461610Y-96362287D01*
X145526997Y-96314781D01*
X145627213Y-96241971D01*
X145627215Y-96241968D01*
X145627219Y-96241966D01*
X145771966Y-96097219D01*
X145771968Y-96097215D01*
X145771971Y-96097213D01*
X145856566Y-95980776D01*
X145892287Y-95931610D01*
X145985220Y-95749219D01*
X146048477Y-95554534D01*
X146080500Y-95352352D01*
X146080500Y-95147648D01*
X146048477Y-94945466D01*
X146033259Y-94898631D01*
X145985218Y-94750776D01*
X145946100Y-94674003D01*
X145892287Y-94568390D01*
X145884556Y-94557749D01*
X145771971Y-94402786D01*
X145627213Y-94258028D01*
X145461614Y-94137715D01*
X145455006Y-94134348D01*
X145368917Y-94090483D01*
X145318123Y-94042511D01*
X145301328Y-93974690D01*
X145323865Y-93908555D01*
X145368917Y-93869516D01*
X145461610Y-93822287D01*
X145561794Y-93749500D01*
X145627213Y-93701971D01*
X145627215Y-93701968D01*
X145627219Y-93701966D01*
X145771966Y-93557219D01*
X145771968Y-93557215D01*
X145771971Y-93557213D01*
X145824732Y-93484590D01*
X145892287Y-93391610D01*
X145985220Y-93209219D01*
X146048477Y-93014534D01*
X146080500Y-92812352D01*
X146080500Y-92607648D01*
X146058146Y-92466510D01*
X146048477Y-92405465D01*
X145985218Y-92210776D01*
X145917672Y-92078211D01*
X145892287Y-92028390D01*
X145851796Y-91972658D01*
X145771971Y-91862786D01*
X145627213Y-91718028D01*
X145461614Y-91597715D01*
X145455006Y-91594348D01*
X145368917Y-91550483D01*
X145318123Y-91502511D01*
X145301328Y-91434690D01*
X145323865Y-91368555D01*
X145368917Y-91329516D01*
X145461610Y-91282287D01*
X145556404Y-91213416D01*
X145627213Y-91161971D01*
X145627215Y-91161968D01*
X145627219Y-91161966D01*
X145771966Y-91017219D01*
X145771968Y-91017215D01*
X145771971Y-91017213D01*
X145841186Y-90921945D01*
X145892287Y-90851610D01*
X145985220Y-90669219D01*
X146048477Y-90474534D01*
X146080500Y-90272352D01*
X146080500Y-90067648D01*
X146050921Y-89880894D01*
X146048477Y-89865465D01*
X145985218Y-89670776D01*
X145946845Y-89595466D01*
X145892287Y-89488390D01*
X145876810Y-89467087D01*
X145771971Y-89322786D01*
X145627213Y-89178028D01*
X145461614Y-89057715D01*
X145451930Y-89052781D01*
X145368917Y-89010483D01*
X145318123Y-88962511D01*
X145301328Y-88894690D01*
X145323865Y-88828555D01*
X145368917Y-88789516D01*
X145461610Y-88742287D01*
X145526997Y-88694781D01*
X145627213Y-88621971D01*
X145627215Y-88621968D01*
X145627219Y-88621966D01*
X145771966Y-88477219D01*
X145771968Y-88477215D01*
X145771971Y-88477213D01*
X145852409Y-88366498D01*
X145892287Y-88311610D01*
X145985220Y-88129219D01*
X146048477Y-87934534D01*
X146080500Y-87732352D01*
X146080500Y-87527648D01*
X146048477Y-87325466D01*
X145985220Y-87130781D01*
X145985218Y-87130778D01*
X145985218Y-87130776D01*
X145951503Y-87064607D01*
X145892287Y-86948390D01*
X145884556Y-86937749D01*
X145771971Y-86782786D01*
X145627213Y-86638028D01*
X145461614Y-86517715D01*
X145455006Y-86514348D01*
X145368917Y-86470483D01*
X145318123Y-86422511D01*
X145301328Y-86354690D01*
X145323865Y-86288555D01*
X145368917Y-86249516D01*
X145461610Y-86202287D01*
X145557962Y-86132284D01*
X145627213Y-86081971D01*
X145627215Y-86081968D01*
X145627219Y-86081966D01*
X145771966Y-85937219D01*
X145771968Y-85937215D01*
X145771971Y-85937213D01*
X145824732Y-85864590D01*
X145892287Y-85771610D01*
X145985220Y-85589219D01*
X146048477Y-85394534D01*
X146080500Y-85192352D01*
X146080500Y-84987648D01*
X146068105Y-84909390D01*
X146048477Y-84785465D01*
X146012427Y-84674517D01*
X145985220Y-84590781D01*
X145985218Y-84590778D01*
X145985218Y-84590776D01*
X145942791Y-84507510D01*
X145892287Y-84408390D01*
X145872830Y-84381610D01*
X145771971Y-84242786D01*
X145627213Y-84098028D01*
X145461614Y-83977715D01*
X145439599Y-83966498D01*
X145368917Y-83930483D01*
X145318123Y-83882511D01*
X145301328Y-83814690D01*
X145323865Y-83748555D01*
X145368917Y-83709516D01*
X145461610Y-83662287D01*
X145577332Y-83578211D01*
X145627213Y-83541971D01*
X145627215Y-83541968D01*
X145627219Y-83541966D01*
X145771966Y-83397219D01*
X145771968Y-83397215D01*
X145771971Y-83397213D01*
X145824732Y-83324590D01*
X145892287Y-83231610D01*
X145985220Y-83049219D01*
X146048477Y-82854534D01*
X146080500Y-82652352D01*
X146080500Y-82447648D01*
X146048477Y-82245466D01*
X145985220Y-82050781D01*
X145985218Y-82050778D01*
X145985218Y-82050776D01*
X145951503Y-81984607D01*
X145892287Y-81868390D01*
X145884556Y-81857749D01*
X145771971Y-81702786D01*
X145627213Y-81558028D01*
X145461614Y-81437715D01*
X145455006Y-81434348D01*
X145368917Y-81390483D01*
X145318123Y-81342511D01*
X145301328Y-81274690D01*
X145323865Y-81208555D01*
X145368917Y-81169516D01*
X145461610Y-81122287D01*
X145482770Y-81106913D01*
X145627213Y-81001971D01*
X145627215Y-81001968D01*
X145627219Y-81001966D01*
X145771966Y-80857219D01*
X145771968Y-80857215D01*
X145771971Y-80857213D01*
X145824732Y-80784590D01*
X145892287Y-80691610D01*
X145985220Y-80509219D01*
X146048477Y-80314534D01*
X146080500Y-80112352D01*
X146080500Y-79907648D01*
X146048477Y-79705466D01*
X145985220Y-79510781D01*
X145985218Y-79510778D01*
X145985218Y-79510776D01*
X145941982Y-79425922D01*
X145892287Y-79328390D01*
X145829734Y-79242292D01*
X145771971Y-79162786D01*
X145627213Y-79018028D01*
X145461614Y-78897715D01*
X145455006Y-78894348D01*
X145368917Y-78850483D01*
X145318123Y-78802511D01*
X145301328Y-78734690D01*
X145323865Y-78668555D01*
X145368917Y-78629516D01*
X145461610Y-78582287D01*
X145482770Y-78566913D01*
X145627213Y-78461971D01*
X145627215Y-78461968D01*
X145627219Y-78461966D01*
X145771966Y-78317219D01*
X145771968Y-78317215D01*
X145771971Y-78317213D01*
X145825287Y-78243828D01*
X145892287Y-78151610D01*
X145985220Y-77969219D01*
X146048477Y-77774534D01*
X146080500Y-77572352D01*
X146080500Y-77367648D01*
X146048477Y-77165466D01*
X145985220Y-76970781D01*
X145985218Y-76970778D01*
X145985218Y-76970776D01*
X145949551Y-76900776D01*
X145892287Y-76788390D01*
X145884556Y-76777749D01*
X145771971Y-76622786D01*
X145627213Y-76478028D01*
X145461614Y-76357715D01*
X145455006Y-76354348D01*
X145368917Y-76310483D01*
X145318123Y-76262511D01*
X145301328Y-76194690D01*
X145323865Y-76128555D01*
X145368917Y-76089516D01*
X145461610Y-76042287D01*
X145482770Y-76026913D01*
X145627213Y-75921971D01*
X145627215Y-75921968D01*
X145627219Y-75921966D01*
X145771966Y-75777219D01*
X145771968Y-75777215D01*
X145771971Y-75777213D01*
X145824732Y-75704590D01*
X145892287Y-75611610D01*
X145985220Y-75429219D01*
X146048477Y-75234534D01*
X146080500Y-75032352D01*
X146080500Y-74827648D01*
X146048477Y-74625466D01*
X145985220Y-74430781D01*
X145985218Y-74430778D01*
X145985218Y-74430776D01*
X145951503Y-74364607D01*
X145892287Y-74248390D01*
X145884556Y-74237749D01*
X145771971Y-74082786D01*
X145627213Y-73938028D01*
X145461614Y-73817715D01*
X145455006Y-73814348D01*
X145368917Y-73770483D01*
X145318123Y-73722511D01*
X145301328Y-73654690D01*
X145323865Y-73588555D01*
X145368917Y-73549516D01*
X145461610Y-73502287D01*
X145482770Y-73486913D01*
X145627213Y-73381971D01*
X145627215Y-73381968D01*
X145627219Y-73381966D01*
X145771966Y-73237219D01*
X145771968Y-73237215D01*
X145771971Y-73237213D01*
X145824732Y-73164590D01*
X145892287Y-73071610D01*
X145985220Y-72889219D01*
X146048477Y-72694534D01*
X146080500Y-72492352D01*
X146080500Y-72287648D01*
X158719500Y-72287648D01*
X158719500Y-72492351D01*
X158751522Y-72694534D01*
X158814781Y-72889223D01*
X158907715Y-73071613D01*
X159028028Y-73237213D01*
X159172786Y-73381971D01*
X159327749Y-73494556D01*
X159338390Y-73502287D01*
X159429840Y-73548883D01*
X159431080Y-73549515D01*
X159481876Y-73597490D01*
X159498671Y-73665311D01*
X159476134Y-73731446D01*
X159431080Y-73770485D01*
X159338386Y-73817715D01*
X159172786Y-73938028D01*
X159028028Y-74082786D01*
X158907715Y-74248386D01*
X158814781Y-74430776D01*
X158751522Y-74625465D01*
X158719500Y-74827648D01*
X158719500Y-75032351D01*
X158751522Y-75234534D01*
X158814781Y-75429223D01*
X158907715Y-75611613D01*
X159028028Y-75777213D01*
X159172786Y-75921971D01*
X159327749Y-76034556D01*
X159338390Y-76042287D01*
X159429840Y-76088883D01*
X159431080Y-76089515D01*
X159481876Y-76137490D01*
X159498671Y-76205311D01*
X159476134Y-76271446D01*
X159431080Y-76310485D01*
X159338386Y-76357715D01*
X159172786Y-76478028D01*
X159028028Y-76622786D01*
X158907715Y-76788386D01*
X158814781Y-76970776D01*
X158751522Y-77165465D01*
X158719500Y-77367648D01*
X158719500Y-77572351D01*
X158751522Y-77774534D01*
X158814781Y-77969223D01*
X158907715Y-78151613D01*
X159028028Y-78317213D01*
X159172786Y-78461971D01*
X159327749Y-78574556D01*
X159338390Y-78582287D01*
X159429840Y-78628883D01*
X159431080Y-78629515D01*
X159481876Y-78677490D01*
X159498671Y-78745311D01*
X159476134Y-78811446D01*
X159431080Y-78850485D01*
X159338386Y-78897715D01*
X159172786Y-79018028D01*
X159028028Y-79162786D01*
X158907715Y-79328386D01*
X158814781Y-79510776D01*
X158751522Y-79705465D01*
X158719500Y-79907648D01*
X158719500Y-80112351D01*
X158751522Y-80314534D01*
X158814781Y-80509223D01*
X158907715Y-80691613D01*
X159028028Y-80857213D01*
X159172786Y-81001971D01*
X159327749Y-81114556D01*
X159338390Y-81122287D01*
X159429840Y-81168883D01*
X159431080Y-81169515D01*
X159481876Y-81217490D01*
X159498671Y-81285311D01*
X159476134Y-81351446D01*
X159431080Y-81390485D01*
X159338386Y-81437715D01*
X159172786Y-81558028D01*
X159028028Y-81702786D01*
X158907715Y-81868386D01*
X158814781Y-82050776D01*
X158751522Y-82245465D01*
X158719500Y-82447648D01*
X158719500Y-82652351D01*
X158751522Y-82854534D01*
X158814781Y-83049223D01*
X158907715Y-83231613D01*
X159028028Y-83397213D01*
X159172786Y-83541971D01*
X159313941Y-83644524D01*
X159338390Y-83662287D01*
X159392205Y-83689707D01*
X159431080Y-83709515D01*
X159481876Y-83757490D01*
X159498671Y-83825311D01*
X159476134Y-83891446D01*
X159431080Y-83930485D01*
X159338386Y-83977715D01*
X159172786Y-84098028D01*
X159028028Y-84242786D01*
X158907715Y-84408386D01*
X158814781Y-84590776D01*
X158751522Y-84785465D01*
X158719500Y-84987648D01*
X158719500Y-85192351D01*
X158751522Y-85394534D01*
X158814781Y-85589223D01*
X158907715Y-85771613D01*
X159028028Y-85937213D01*
X159172786Y-86081971D01*
X159327749Y-86194556D01*
X159338390Y-86202287D01*
X159429840Y-86248883D01*
X159431080Y-86249515D01*
X159481876Y-86297490D01*
X159498671Y-86365311D01*
X159476134Y-86431446D01*
X159431080Y-86470485D01*
X159338386Y-86517715D01*
X159172786Y-86638028D01*
X159028028Y-86782786D01*
X158907715Y-86948386D01*
X158814781Y-87130776D01*
X158751522Y-87325465D01*
X158719500Y-87527648D01*
X158719500Y-87732351D01*
X158751522Y-87934534D01*
X158814781Y-88129223D01*
X158907715Y-88311613D01*
X159028028Y-88477213D01*
X159172786Y-88621971D01*
X159327749Y-88734556D01*
X159338390Y-88742287D01*
X159427543Y-88787713D01*
X159431080Y-88789515D01*
X159481876Y-88837490D01*
X159498671Y-88905311D01*
X159476134Y-88971446D01*
X159431080Y-89010485D01*
X159338386Y-89057715D01*
X159172786Y-89178028D01*
X159028028Y-89322786D01*
X158907715Y-89488386D01*
X158814781Y-89670776D01*
X158751522Y-89865465D01*
X158719500Y-90067648D01*
X158719500Y-90272351D01*
X158751522Y-90474534D01*
X158814781Y-90669223D01*
X158872715Y-90782923D01*
X158892834Y-90822409D01*
X158907715Y-90851613D01*
X159028028Y-91017213D01*
X159172786Y-91161971D01*
X159311180Y-91262518D01*
X159338390Y-91282287D01*
X159423408Y-91325606D01*
X159431080Y-91329515D01*
X159481876Y-91377490D01*
X159498671Y-91445311D01*
X159476134Y-91511446D01*
X159431080Y-91550485D01*
X159338386Y-91597715D01*
X159172786Y-91718028D01*
X159028028Y-91862786D01*
X158907715Y-92028386D01*
X158814781Y-92210776D01*
X158751522Y-92405465D01*
X158719500Y-92607648D01*
X158719500Y-92812351D01*
X158751522Y-93014534D01*
X158814781Y-93209223D01*
X158907715Y-93391613D01*
X159028028Y-93557213D01*
X159172786Y-93701971D01*
X159289060Y-93786447D01*
X159338390Y-93822287D01*
X159411291Y-93859432D01*
X159431080Y-93869515D01*
X159481876Y-93917490D01*
X159498671Y-93985311D01*
X159476134Y-94051446D01*
X159431080Y-94090485D01*
X159338386Y-94137715D01*
X159172786Y-94258028D01*
X159028028Y-94402786D01*
X158907715Y-94568386D01*
X158814781Y-94750776D01*
X158751522Y-94945465D01*
X158719500Y-95147648D01*
X158719500Y-95352351D01*
X158751522Y-95554534D01*
X158814781Y-95749223D01*
X158907715Y-95931613D01*
X159028028Y-96097213D01*
X159172786Y-96241971D01*
X159327749Y-96354556D01*
X159338390Y-96362287D01*
X159401645Y-96394517D01*
X159431080Y-96409515D01*
X159481876Y-96457490D01*
X159498671Y-96525311D01*
X159476134Y-96591446D01*
X159431080Y-96630485D01*
X159338386Y-96677715D01*
X159172786Y-96798028D01*
X159028028Y-96942786D01*
X158907715Y-97108386D01*
X158814781Y-97290776D01*
X158751522Y-97485465D01*
X158719500Y-97687648D01*
X158719500Y-97892351D01*
X158751522Y-98094534D01*
X158814781Y-98289223D01*
X158907715Y-98471613D01*
X159028028Y-98637213D01*
X159172786Y-98781971D01*
X159299907Y-98874328D01*
X159338390Y-98902287D01*
X159410424Y-98938990D01*
X159431629Y-98949795D01*
X159482425Y-98997770D01*
X159499220Y-99065591D01*
X159476682Y-99131726D01*
X159431629Y-99170765D01*
X159338650Y-99218140D01*
X159173105Y-99338417D01*
X159173104Y-99338417D01*
X159028417Y-99483104D01*
X159028417Y-99483105D01*
X158908140Y-99648650D01*
X158815244Y-99830970D01*
X158752009Y-100025586D01*
X158743391Y-100080000D01*
X159586988Y-100080000D01*
X159554075Y-100137007D01*
X159520000Y-100264174D01*
X159520000Y-100395826D01*
X159554075Y-100522993D01*
X159586988Y-100580000D01*
X158743391Y-100580000D01*
X158752009Y-100634413D01*
X158815244Y-100829029D01*
X158908140Y-101011349D01*
X159028417Y-101176894D01*
X159028417Y-101176895D01*
X159173104Y-101321582D01*
X159338652Y-101441861D01*
X159431628Y-101489234D01*
X159482425Y-101537208D01*
X159499220Y-101605029D01*
X159476683Y-101671164D01*
X159431630Y-101710203D01*
X159338388Y-101757713D01*
X159172786Y-101878028D01*
X159028028Y-102022786D01*
X158907715Y-102188386D01*
X158814781Y-102370776D01*
X158751522Y-102565465D01*
X158719500Y-102767648D01*
X158719500Y-102972351D01*
X158751522Y-103174534D01*
X158814781Y-103369223D01*
X158907715Y-103551613D01*
X159028028Y-103717213D01*
X159172786Y-103861971D01*
X159327749Y-103974556D01*
X159338390Y-103982287D01*
X159429840Y-104028883D01*
X159431080Y-104029515D01*
X159481876Y-104077490D01*
X159498671Y-104145311D01*
X159476134Y-104211446D01*
X159431080Y-104250485D01*
X159338386Y-104297715D01*
X159172786Y-104418028D01*
X159028028Y-104562786D01*
X158907715Y-104728386D01*
X158814781Y-104910776D01*
X158751522Y-105105465D01*
X158719500Y-105307648D01*
X158719500Y-105512351D01*
X158751522Y-105714534D01*
X158814781Y-105909223D01*
X158907715Y-106091613D01*
X159028028Y-106257213D01*
X159172784Y-106401969D01*
X159209068Y-106428330D01*
X159251735Y-106483659D01*
X159257715Y-106553273D01*
X159225109Y-106615068D01*
X159164271Y-106649426D01*
X159149440Y-106651938D01*
X159112519Y-106655907D01*
X158977671Y-106706202D01*
X158977664Y-106706206D01*
X158862455Y-106792452D01*
X158862452Y-106792455D01*
X158776206Y-106907664D01*
X158776202Y-106907671D01*
X158725908Y-107042517D01*
X158719501Y-107102116D01*
X158719501Y-107102123D01*
X158719500Y-107102135D01*
X158719500Y-108797870D01*
X158719501Y-108797876D01*
X158725908Y-108857483D01*
X158776202Y-108992328D01*
X158776206Y-108992335D01*
X158862452Y-109107544D01*
X158862455Y-109107547D01*
X158977664Y-109193793D01*
X158977671Y-109193797D01*
X159112517Y-109244091D01*
X159112516Y-109244091D01*
X159119444Y-109244835D01*
X159172127Y-109250500D01*
X160867872Y-109250499D01*
X160927483Y-109244091D01*
X161062331Y-109193796D01*
X161177546Y-109107546D01*
X161263796Y-108992331D01*
X161314091Y-108857483D01*
X161320500Y-108797873D01*
X161320499Y-107102128D01*
X161314091Y-107042517D01*
X161263796Y-106907669D01*
X161263795Y-106907668D01*
X161263793Y-106907664D01*
X161177547Y-106792455D01*
X161177544Y-106792452D01*
X161062335Y-106706206D01*
X161062328Y-106706202D01*
X160927482Y-106655908D01*
X160927483Y-106655908D01*
X160890560Y-106651939D01*
X160826009Y-106625201D01*
X160786160Y-106567809D01*
X160783667Y-106497984D01*
X160819319Y-106437895D01*
X160830930Y-106428331D01*
X160867219Y-106401966D01*
X161011966Y-106257219D01*
X161011968Y-106257215D01*
X161011971Y-106257213D01*
X161088945Y-106151265D01*
X161132287Y-106091610D01*
X161225220Y-105909219D01*
X161288477Y-105714534D01*
X161320500Y-105512352D01*
X161320500Y-105307648D01*
X161304203Y-105204755D01*
X161288477Y-105105465D01*
X161256094Y-105005802D01*
X161225220Y-104910781D01*
X161225218Y-104910778D01*
X161225218Y-104910776D01*
X161191503Y-104844607D01*
X161132287Y-104728390D01*
X161124556Y-104717749D01*
X161011971Y-104562786D01*
X160867213Y-104418028D01*
X160701614Y-104297715D01*
X160695006Y-104294348D01*
X160608917Y-104250483D01*
X160558123Y-104202511D01*
X160541328Y-104134690D01*
X160563865Y-104068555D01*
X160608917Y-104029516D01*
X160701610Y-103982287D01*
X160749712Y-103947339D01*
X160867213Y-103861971D01*
X160867215Y-103861968D01*
X160867219Y-103861966D01*
X161011966Y-103717219D01*
X161011968Y-103717215D01*
X161011971Y-103717213D01*
X161097697Y-103599219D01*
X161132287Y-103551610D01*
X161225220Y-103369219D01*
X161288477Y-103174534D01*
X161320500Y-102972352D01*
X161320500Y-102767648D01*
X161302683Y-102655156D01*
X161288477Y-102565465D01*
X161225218Y-102370776D01*
X161165098Y-102252786D01*
X161132287Y-102188390D01*
X161124556Y-102177749D01*
X161011971Y-102022786D01*
X160867213Y-101878028D01*
X160701611Y-101757713D01*
X160608369Y-101710203D01*
X160557574Y-101662229D01*
X160540779Y-101594407D01*
X160563317Y-101528273D01*
X160608371Y-101489234D01*
X160701347Y-101441861D01*
X160866894Y-101321582D01*
X160866895Y-101321582D01*
X161011582Y-101176895D01*
X161011582Y-101176894D01*
X161131859Y-101011349D01*
X161224755Y-100829029D01*
X161287990Y-100634413D01*
X161296609Y-100580000D01*
X160453012Y-100580000D01*
X160485925Y-100522993D01*
X160520000Y-100395826D01*
X160520000Y-100264174D01*
X160485925Y-100137007D01*
X160453012Y-100080000D01*
X161296609Y-100080000D01*
X161287990Y-100025586D01*
X161224755Y-99830970D01*
X161131859Y-99648650D01*
X161011582Y-99483105D01*
X161011582Y-99483104D01*
X160866895Y-99338417D01*
X160701349Y-99218140D01*
X160608370Y-99170765D01*
X160557574Y-99122790D01*
X160540779Y-99054969D01*
X160563316Y-98988835D01*
X160608370Y-98949795D01*
X160608920Y-98949515D01*
X160701610Y-98902287D01*
X160740093Y-98874328D01*
X160867213Y-98781971D01*
X160867215Y-98781968D01*
X160867219Y-98781966D01*
X161011966Y-98637219D01*
X161011968Y-98637215D01*
X161011971Y-98637213D01*
X161102963Y-98511971D01*
X161132287Y-98471610D01*
X161225220Y-98289219D01*
X161288477Y-98094534D01*
X161320500Y-97892352D01*
X161320500Y-97687648D01*
X161305396Y-97592284D01*
X161288477Y-97485465D01*
X161225218Y-97290776D01*
X161186845Y-97215466D01*
X161132287Y-97108390D01*
X161124556Y-97097749D01*
X161011971Y-96942786D01*
X160867213Y-96798028D01*
X160701614Y-96677715D01*
X160691930Y-96672781D01*
X160608917Y-96630483D01*
X160558123Y-96582511D01*
X160541328Y-96514690D01*
X160563865Y-96448555D01*
X160608917Y-96409516D01*
X160701610Y-96362287D01*
X160766997Y-96314781D01*
X160867213Y-96241971D01*
X160867215Y-96241968D01*
X160867219Y-96241966D01*
X161011966Y-96097219D01*
X161011968Y-96097215D01*
X161011971Y-96097213D01*
X161096566Y-95980776D01*
X161132287Y-95931610D01*
X161225220Y-95749219D01*
X161288477Y-95554534D01*
X161320500Y-95352352D01*
X161320500Y-95147648D01*
X161288477Y-94945466D01*
X161273259Y-94898631D01*
X161225218Y-94750776D01*
X161186100Y-94674003D01*
X161132287Y-94568390D01*
X161124556Y-94557749D01*
X161011971Y-94402786D01*
X160867213Y-94258028D01*
X160701614Y-94137715D01*
X160695006Y-94134348D01*
X160608917Y-94090483D01*
X160558123Y-94042511D01*
X160541328Y-93974690D01*
X160563865Y-93908555D01*
X160608917Y-93869516D01*
X160701610Y-93822287D01*
X160801794Y-93749500D01*
X160867213Y-93701971D01*
X160867215Y-93701968D01*
X160867219Y-93701966D01*
X161011966Y-93557219D01*
X161011968Y-93557215D01*
X161011971Y-93557213D01*
X161064732Y-93484590D01*
X161132287Y-93391610D01*
X161225220Y-93209219D01*
X161288477Y-93014534D01*
X161320500Y-92812352D01*
X161320500Y-92621153D01*
X161999500Y-92621153D01*
X161999500Y-92778846D01*
X162030261Y-92933489D01*
X162030264Y-92933501D01*
X162090602Y-93079172D01*
X162090609Y-93079185D01*
X162178602Y-93210874D01*
X162199480Y-93277551D01*
X162199500Y-93279765D01*
X162199500Y-106313330D01*
X162199499Y-106313348D01*
X162199499Y-106479054D01*
X162199498Y-106479054D01*
X162210968Y-106521861D01*
X162240423Y-106631785D01*
X162254351Y-106655909D01*
X162319477Y-106768712D01*
X162319481Y-106768717D01*
X162438349Y-106887585D01*
X162438355Y-106887590D01*
X164105922Y-108555157D01*
X164139407Y-108616480D01*
X164136173Y-108681155D01*
X164131522Y-108695468D01*
X164099500Y-108897648D01*
X164099500Y-109102351D01*
X164131522Y-109304534D01*
X164194781Y-109499223D01*
X164287715Y-109681613D01*
X164408028Y-109847213D01*
X164552786Y-109991971D01*
X164707749Y-110104556D01*
X164718390Y-110112287D01*
X164834607Y-110171503D01*
X164900776Y-110205218D01*
X164900778Y-110205218D01*
X164900781Y-110205220D01*
X164948673Y-110220781D01*
X165095465Y-110268477D01*
X165196557Y-110284488D01*
X165297648Y-110300500D01*
X165297649Y-110300500D01*
X165502351Y-110300500D01*
X165502352Y-110300500D01*
X165704534Y-110268477D01*
X165899219Y-110205220D01*
X166081610Y-110112287D01*
X166183327Y-110038386D01*
X166247213Y-109991971D01*
X166247215Y-109991968D01*
X166247219Y-109991966D01*
X166391966Y-109847219D01*
X166391968Y-109847215D01*
X166391971Y-109847213D01*
X166478558Y-109728034D01*
X166512287Y-109681610D01*
X166605220Y-109499219D01*
X166668477Y-109304534D01*
X166700500Y-109102352D01*
X166700500Y-108897648D01*
X166700500Y-108897647D01*
X166689221Y-108826433D01*
X166686919Y-108811902D01*
X176149500Y-108811902D01*
X176149500Y-109048097D01*
X176186446Y-109281368D01*
X176259433Y-109505996D01*
X176311261Y-109607713D01*
X176366657Y-109716433D01*
X176505483Y-109907510D01*
X176672490Y-110074517D01*
X176863567Y-110213343D01*
X176962991Y-110264002D01*
X177074003Y-110320566D01*
X177074005Y-110320566D01*
X177074008Y-110320568D01*
X177194412Y-110359689D01*
X177298631Y-110393553D01*
X177531903Y-110430500D01*
X177531908Y-110430500D01*
X177768097Y-110430500D01*
X178001368Y-110393553D01*
X178225992Y-110320568D01*
X178436433Y-110213343D01*
X178627510Y-110074517D01*
X178794517Y-109907510D01*
X178933343Y-109716433D01*
X179040568Y-109505992D01*
X179113553Y-109281368D01*
X179127423Y-109193796D01*
X179150500Y-109048097D01*
X179150500Y-108811902D01*
X182649500Y-108811902D01*
X182649500Y-109048097D01*
X182686446Y-109281368D01*
X182759433Y-109505996D01*
X182811261Y-109607713D01*
X182866657Y-109716433D01*
X183005483Y-109907510D01*
X183172490Y-110074517D01*
X183363567Y-110213343D01*
X183462991Y-110264002D01*
X183574003Y-110320566D01*
X183574005Y-110320566D01*
X183574008Y-110320568D01*
X183694412Y-110359689D01*
X183798631Y-110393553D01*
X184031903Y-110430500D01*
X184031908Y-110430500D01*
X184268097Y-110430500D01*
X184501368Y-110393553D01*
X184725992Y-110320568D01*
X184936433Y-110213343D01*
X185127510Y-110074517D01*
X185294517Y-109907510D01*
X185433343Y-109716433D01*
X185540568Y-109505992D01*
X185613553Y-109281368D01*
X185627423Y-109193796D01*
X185650500Y-109048097D01*
X185650500Y-108811902D01*
X185613553Y-108578631D01*
X185540566Y-108354003D01*
X185438040Y-108152786D01*
X185433343Y-108143567D01*
X185294517Y-107952490D01*
X185127510Y-107785483D01*
X184936433Y-107646657D01*
X184934094Y-107645465D01*
X184725996Y-107539433D01*
X184501368Y-107466446D01*
X184268097Y-107429500D01*
X184268092Y-107429500D01*
X184031908Y-107429500D01*
X184031903Y-107429500D01*
X183798631Y-107466446D01*
X183574003Y-107539433D01*
X183363566Y-107646657D01*
X183290835Y-107699500D01*
X183172490Y-107785483D01*
X183172488Y-107785485D01*
X183172487Y-107785485D01*
X183005485Y-107952487D01*
X183005485Y-107952488D01*
X183005483Y-107952490D01*
X182965132Y-108008028D01*
X182866657Y-108143566D01*
X182759433Y-108354003D01*
X182686446Y-108578631D01*
X182649500Y-108811902D01*
X179150500Y-108811902D01*
X179113553Y-108578631D01*
X179040566Y-108354003D01*
X178938040Y-108152786D01*
X178933343Y-108143567D01*
X178794517Y-107952490D01*
X178627510Y-107785483D01*
X178436433Y-107646657D01*
X178434094Y-107645465D01*
X178225996Y-107539433D01*
X178001368Y-107466446D01*
X177768097Y-107429500D01*
X177768092Y-107429500D01*
X177531908Y-107429500D01*
X177531903Y-107429500D01*
X177298631Y-107466446D01*
X177074003Y-107539433D01*
X176863566Y-107646657D01*
X176790835Y-107699500D01*
X176672490Y-107785483D01*
X176672488Y-107785485D01*
X176672487Y-107785485D01*
X176505485Y-107952487D01*
X176505485Y-107952488D01*
X176505483Y-107952490D01*
X176465132Y-108008028D01*
X176366657Y-108143566D01*
X176259433Y-108354003D01*
X176186446Y-108578631D01*
X176149500Y-108811902D01*
X166686919Y-108811902D01*
X166668477Y-108695465D01*
X166605218Y-108500776D01*
X166530435Y-108354008D01*
X166512287Y-108318390D01*
X166504556Y-108307749D01*
X166391971Y-108152786D01*
X166247213Y-108008028D01*
X166081613Y-107887715D01*
X166081612Y-107887714D01*
X166081610Y-107887713D01*
X166002978Y-107847648D01*
X165899223Y-107794781D01*
X165704534Y-107731522D01*
X165529995Y-107703878D01*
X165502352Y-107699500D01*
X165297648Y-107699500D01*
X165259599Y-107705526D01*
X165095468Y-107731522D01*
X165086717Y-107734365D01*
X165081154Y-107736173D01*
X165011313Y-107738167D01*
X164955157Y-107705922D01*
X163436819Y-106187584D01*
X163403334Y-106126261D01*
X163400500Y-106099903D01*
X163400500Y-103897682D01*
X164100000Y-103897682D01*
X164100000Y-104102317D01*
X164132009Y-104304417D01*
X164195244Y-104499031D01*
X164288141Y-104681350D01*
X164288147Y-104681359D01*
X164320523Y-104725921D01*
X164320524Y-104725922D01*
X165000000Y-104046446D01*
X165000000Y-104052661D01*
X165027259Y-104154394D01*
X165079920Y-104245606D01*
X165154394Y-104320080D01*
X165245606Y-104372741D01*
X165347339Y-104400000D01*
X165353553Y-104400000D01*
X164674076Y-105079474D01*
X164718650Y-105111859D01*
X164900968Y-105204755D01*
X165095582Y-105267990D01*
X165297683Y-105300000D01*
X165502317Y-105300000D01*
X165704417Y-105267990D01*
X165899031Y-105204755D01*
X166081349Y-105111859D01*
X166125921Y-105079474D01*
X165446447Y-104400000D01*
X165452661Y-104400000D01*
X165554394Y-104372741D01*
X165645606Y-104320080D01*
X165720080Y-104245606D01*
X165772741Y-104154394D01*
X165800000Y-104052661D01*
X165800000Y-104046448D01*
X166479474Y-104725922D01*
X166479474Y-104725921D01*
X166511859Y-104681349D01*
X166604755Y-104499031D01*
X166667990Y-104304417D01*
X166700000Y-104102317D01*
X166700000Y-103897682D01*
X166667990Y-103695582D01*
X166604755Y-103500968D01*
X166511859Y-103318650D01*
X166479474Y-103274077D01*
X166479474Y-103274076D01*
X165800000Y-103953551D01*
X165800000Y-103947339D01*
X165772741Y-103845606D01*
X165720080Y-103754394D01*
X165645606Y-103679920D01*
X165554394Y-103627259D01*
X165452661Y-103600000D01*
X165446446Y-103600000D01*
X166125922Y-102920524D01*
X166125921Y-102920523D01*
X166081359Y-102888147D01*
X166081350Y-102888141D01*
X165899031Y-102795244D01*
X165704417Y-102732009D01*
X165502317Y-102700000D01*
X165297683Y-102700000D01*
X165095582Y-102732009D01*
X164900968Y-102795244D01*
X164718644Y-102888143D01*
X164674077Y-102920523D01*
X164674077Y-102920524D01*
X165353554Y-103600000D01*
X165347339Y-103600000D01*
X165245606Y-103627259D01*
X165154394Y-103679920D01*
X165079920Y-103754394D01*
X165027259Y-103845606D01*
X165000000Y-103947339D01*
X165000000Y-103953553D01*
X164320524Y-103274077D01*
X164320523Y-103274077D01*
X164288143Y-103318644D01*
X164195244Y-103500968D01*
X164132009Y-103695582D01*
X164100000Y-103897682D01*
X163400500Y-103897682D01*
X163400500Y-98717847D01*
X163420185Y-98650808D01*
X163472989Y-98605053D01*
X163500309Y-98596230D01*
X163516291Y-98593050D01*
X163633497Y-98569737D01*
X163779179Y-98509394D01*
X163910289Y-98421789D01*
X164021789Y-98310289D01*
X164109394Y-98179179D01*
X164169737Y-98033497D01*
X164200500Y-97878842D01*
X164200500Y-97721158D01*
X164195535Y-97696198D01*
X164201761Y-97626608D01*
X164244623Y-97571430D01*
X164310513Y-97548184D01*
X164378510Y-97564251D01*
X164390037Y-97571688D01*
X164413846Y-97588985D01*
X164418390Y-97592287D01*
X164485749Y-97626608D01*
X164600776Y-97685218D01*
X164600778Y-97685218D01*
X164600781Y-97685220D01*
X164705137Y-97719127D01*
X164795465Y-97748477D01*
X164896557Y-97764488D01*
X164997648Y-97780500D01*
X164997649Y-97780500D01*
X165202351Y-97780500D01*
X165202352Y-97780500D01*
X165404534Y-97748477D01*
X165599219Y-97685220D01*
X165781610Y-97592287D01*
X165928638Y-97485466D01*
X165947213Y-97471971D01*
X165947215Y-97471968D01*
X165947219Y-97471966D01*
X166091966Y-97327219D01*
X166091968Y-97327215D01*
X166091971Y-97327213D01*
X166144732Y-97254590D01*
X166212287Y-97161610D01*
X166305220Y-96979219D01*
X166368477Y-96784534D01*
X166400500Y-96582352D01*
X166400500Y-96377648D01*
X166380524Y-96251524D01*
X166368477Y-96175465D01*
X166305218Y-95980776D01*
X166271503Y-95914607D01*
X166212287Y-95798390D01*
X166199500Y-95780790D01*
X166091971Y-95632786D01*
X165947213Y-95488028D01*
X165781613Y-95367715D01*
X165781612Y-95367714D01*
X165781610Y-95367713D01*
X165724653Y-95338691D01*
X165599223Y-95274781D01*
X165404534Y-95211522D01*
X165229995Y-95183878D01*
X165202352Y-95179500D01*
X164997648Y-95179500D01*
X164973329Y-95183351D01*
X164795465Y-95211522D01*
X164600776Y-95274781D01*
X164418386Y-95367715D01*
X164252786Y-95488028D01*
X164252782Y-95488032D01*
X164212181Y-95528634D01*
X164150858Y-95562119D01*
X164081166Y-95557135D01*
X164025233Y-95515263D01*
X164000816Y-95449799D01*
X164000500Y-95440953D01*
X164000500Y-92277308D01*
X164020185Y-92210269D01*
X164036819Y-92189627D01*
X164700000Y-91526446D01*
X164700000Y-91532661D01*
X164727259Y-91634394D01*
X164779920Y-91725606D01*
X164854394Y-91800080D01*
X164945606Y-91852741D01*
X165047339Y-91880000D01*
X165053553Y-91880000D01*
X164374076Y-92559474D01*
X164418650Y-92591859D01*
X164600968Y-92684755D01*
X164795582Y-92747990D01*
X164997683Y-92780000D01*
X165202317Y-92780000D01*
X165404417Y-92747990D01*
X165599031Y-92684755D01*
X165781349Y-92591859D01*
X165825921Y-92559474D01*
X165146447Y-91880000D01*
X165152661Y-91880000D01*
X165254394Y-91852741D01*
X165345606Y-91800080D01*
X165420080Y-91725606D01*
X165472741Y-91634394D01*
X165500000Y-91532661D01*
X165500000Y-91526448D01*
X166179474Y-92205922D01*
X166179474Y-92205921D01*
X166211859Y-92161349D01*
X166304755Y-91979031D01*
X166367990Y-91784417D01*
X166400000Y-91582317D01*
X166400000Y-91377682D01*
X166367990Y-91175582D01*
X166304755Y-90980968D01*
X166211859Y-90798650D01*
X166179474Y-90754077D01*
X166179474Y-90754076D01*
X165500000Y-91433551D01*
X165500000Y-91427339D01*
X165472741Y-91325606D01*
X165420080Y-91234394D01*
X165345606Y-91159920D01*
X165254394Y-91107259D01*
X165152661Y-91080000D01*
X165146446Y-91080000D01*
X165825922Y-90400524D01*
X165825921Y-90400523D01*
X165781359Y-90368147D01*
X165781350Y-90368141D01*
X165599031Y-90275244D01*
X165404417Y-90212009D01*
X165202317Y-90180000D01*
X164997683Y-90180000D01*
X164795582Y-90212009D01*
X164600968Y-90275244D01*
X164418644Y-90368143D01*
X164374077Y-90400523D01*
X164374077Y-90400524D01*
X165053554Y-91080000D01*
X165047339Y-91080000D01*
X164945606Y-91107259D01*
X164854394Y-91159920D01*
X164779920Y-91234394D01*
X164727259Y-91325606D01*
X164700000Y-91427339D01*
X164700000Y-91433552D01*
X164036819Y-90770371D01*
X164022115Y-90743443D01*
X164005523Y-90717625D01*
X164004631Y-90711424D01*
X164003334Y-90709048D01*
X164000500Y-90682690D01*
X164000500Y-85500096D01*
X164020185Y-85433057D01*
X164036815Y-85412419D01*
X164455157Y-84994076D01*
X164516480Y-84960592D01*
X164581154Y-84963826D01*
X164595466Y-84968477D01*
X164797648Y-85000500D01*
X164797649Y-85000500D01*
X165002351Y-85000500D01*
X165002352Y-85000500D01*
X165204534Y-84968477D01*
X165399219Y-84905220D01*
X165581610Y-84812287D01*
X165714874Y-84715466D01*
X165747213Y-84691971D01*
X165747215Y-84691968D01*
X165747219Y-84691966D01*
X165891966Y-84547219D01*
X165891968Y-84547215D01*
X165891971Y-84547213D01*
X165974595Y-84433489D01*
X166012287Y-84381610D01*
X166105220Y-84199219D01*
X166168477Y-84004534D01*
X166200500Y-83802352D01*
X166200500Y-83597648D01*
X166197421Y-83578210D01*
X166168477Y-83395465D01*
X166105218Y-83200776D01*
X166027997Y-83049223D01*
X166012287Y-83018390D01*
X166004556Y-83007749D01*
X165891971Y-82852786D01*
X165747213Y-82708028D01*
X165581613Y-82587715D01*
X165581612Y-82587714D01*
X165581610Y-82587713D01*
X165512475Y-82552487D01*
X165399223Y-82494781D01*
X165204534Y-82431522D01*
X165029995Y-82403878D01*
X165002352Y-82399500D01*
X164797648Y-82399500D01*
X164773329Y-82403351D01*
X164595465Y-82431522D01*
X164400776Y-82494781D01*
X164218386Y-82587715D01*
X164052786Y-82708028D01*
X163908028Y-82852786D01*
X163787715Y-83018386D01*
X163694781Y-83200776D01*
X163631522Y-83395465D01*
X163602578Y-83578213D01*
X163599500Y-83597648D01*
X163599500Y-83802352D01*
X163601469Y-83814781D01*
X163631522Y-84004534D01*
X163636173Y-84018848D01*
X163638165Y-84088690D01*
X163605921Y-84144842D01*
X163031286Y-84719478D01*
X162919481Y-84831282D01*
X162919479Y-84831285D01*
X162874385Y-84909392D01*
X162874384Y-84909393D01*
X162840423Y-84968214D01*
X162840423Y-84968215D01*
X162799499Y-85120943D01*
X162799499Y-85120945D01*
X162799499Y-85289046D01*
X162799500Y-85289059D01*
X162799500Y-91782152D01*
X162779815Y-91849191D01*
X162727011Y-91894946D01*
X162699692Y-91903769D01*
X162566508Y-91930261D01*
X162566498Y-91930264D01*
X162420827Y-91990602D01*
X162420814Y-91990609D01*
X162289711Y-92078210D01*
X162289707Y-92078213D01*
X162178213Y-92189707D01*
X162178210Y-92189711D01*
X162090609Y-92320814D01*
X162090602Y-92320827D01*
X162030264Y-92466498D01*
X162030261Y-92466510D01*
X161999500Y-92621153D01*
X161320500Y-92621153D01*
X161320500Y-92607648D01*
X161298146Y-92466510D01*
X161288477Y-92405465D01*
X161225218Y-92210776D01*
X161157672Y-92078211D01*
X161132287Y-92028390D01*
X161091796Y-91972658D01*
X161011971Y-91862786D01*
X160867213Y-91718028D01*
X160701614Y-91597715D01*
X160695006Y-91594348D01*
X160608917Y-91550483D01*
X160558123Y-91502511D01*
X160541328Y-91434690D01*
X160563865Y-91368555D01*
X160608917Y-91329516D01*
X160701610Y-91282287D01*
X160796404Y-91213416D01*
X160867213Y-91161971D01*
X160867215Y-91161968D01*
X160867219Y-91161966D01*
X161011966Y-91017219D01*
X161011968Y-91017215D01*
X161011971Y-91017213D01*
X161081186Y-90921945D01*
X161132287Y-90851610D01*
X161225220Y-90669219D01*
X161288477Y-90474534D01*
X161320500Y-90272352D01*
X161320500Y-90067648D01*
X161290921Y-89880894D01*
X161288477Y-89865465D01*
X161225218Y-89670776D01*
X161186845Y-89595466D01*
X161132287Y-89488390D01*
X161116810Y-89467087D01*
X161011971Y-89322786D01*
X160867213Y-89178028D01*
X160701614Y-89057715D01*
X160691930Y-89052781D01*
X160608917Y-89010483D01*
X160558123Y-88962511D01*
X160541328Y-88894690D01*
X160563865Y-88828555D01*
X160608917Y-88789516D01*
X160701610Y-88742287D01*
X160766997Y-88694781D01*
X160867213Y-88621971D01*
X160867215Y-88621968D01*
X160867219Y-88621966D01*
X161011966Y-88477219D01*
X161011968Y-88477215D01*
X161011971Y-88477213D01*
X161092409Y-88366498D01*
X161132287Y-88311610D01*
X161225220Y-88129219D01*
X161288477Y-87934534D01*
X161320500Y-87732352D01*
X161320500Y-87527648D01*
X161288477Y-87325466D01*
X161225220Y-87130781D01*
X161225218Y-87130778D01*
X161225218Y-87130776D01*
X161191503Y-87064607D01*
X161132287Y-86948390D01*
X161124556Y-86937749D01*
X161011971Y-86782786D01*
X160867213Y-86638028D01*
X160701614Y-86517715D01*
X160695006Y-86514348D01*
X160608917Y-86470483D01*
X160558123Y-86422511D01*
X160541328Y-86354690D01*
X160563865Y-86288555D01*
X160608917Y-86249516D01*
X160701610Y-86202287D01*
X160797962Y-86132284D01*
X160867213Y-86081971D01*
X160867215Y-86081968D01*
X160867219Y-86081966D01*
X161011966Y-85937219D01*
X161011968Y-85937215D01*
X161011971Y-85937213D01*
X161064732Y-85864590D01*
X161132287Y-85771610D01*
X161225220Y-85589219D01*
X161288477Y-85394534D01*
X161320500Y-85192352D01*
X161320500Y-84987648D01*
X161308105Y-84909390D01*
X161288477Y-84785465D01*
X161252427Y-84674517D01*
X161225220Y-84590781D01*
X161225218Y-84590778D01*
X161225218Y-84590776D01*
X161182791Y-84507510D01*
X161132287Y-84408390D01*
X161112830Y-84381610D01*
X161011971Y-84242786D01*
X160867213Y-84098028D01*
X160701614Y-83977715D01*
X160679599Y-83966498D01*
X160608917Y-83930483D01*
X160558123Y-83882511D01*
X160541328Y-83814690D01*
X160563865Y-83748555D01*
X160608917Y-83709516D01*
X160701610Y-83662287D01*
X160817332Y-83578211D01*
X160867213Y-83541971D01*
X160867215Y-83541968D01*
X160867219Y-83541966D01*
X161011966Y-83397219D01*
X161011968Y-83397215D01*
X161011971Y-83397213D01*
X161064732Y-83324590D01*
X161132287Y-83231610D01*
X161225220Y-83049219D01*
X161288477Y-82854534D01*
X161320500Y-82652352D01*
X161320500Y-82447648D01*
X161288477Y-82245466D01*
X161225220Y-82050781D01*
X161225218Y-82050778D01*
X161225218Y-82050776D01*
X161191503Y-81984607D01*
X161132287Y-81868390D01*
X161124556Y-81857749D01*
X161011971Y-81702786D01*
X160867213Y-81558028D01*
X160701614Y-81437715D01*
X160695006Y-81434348D01*
X160608917Y-81390483D01*
X160558123Y-81342511D01*
X160541328Y-81274690D01*
X160563865Y-81208555D01*
X160608917Y-81169516D01*
X160701610Y-81122287D01*
X160722770Y-81106913D01*
X160867213Y-81001971D01*
X160867215Y-81001968D01*
X160867219Y-81001966D01*
X161011966Y-80857219D01*
X161011968Y-80857215D01*
X161011971Y-80857213D01*
X161064732Y-80784590D01*
X161132287Y-80691610D01*
X161225220Y-80509219D01*
X161288477Y-80314534D01*
X161320500Y-80112352D01*
X161320500Y-79907648D01*
X161288477Y-79705466D01*
X161225220Y-79510781D01*
X161225218Y-79510778D01*
X161225218Y-79510776D01*
X161181982Y-79425922D01*
X161132287Y-79328390D01*
X161069734Y-79242292D01*
X161011971Y-79162786D01*
X160867213Y-79018028D01*
X160701614Y-78897715D01*
X160695006Y-78894348D01*
X160608917Y-78850483D01*
X160558123Y-78802511D01*
X160541328Y-78734690D01*
X160563865Y-78668555D01*
X160608917Y-78629516D01*
X160671395Y-78597682D01*
X163600000Y-78597682D01*
X163600000Y-78802317D01*
X163632009Y-79004417D01*
X163695244Y-79199031D01*
X163788141Y-79381350D01*
X163788147Y-79381359D01*
X163820523Y-79425921D01*
X163820524Y-79425922D01*
X164500000Y-78746446D01*
X164500000Y-78752661D01*
X164527259Y-78854394D01*
X164579920Y-78945606D01*
X164654394Y-79020080D01*
X164745606Y-79072741D01*
X164847339Y-79100000D01*
X164853553Y-79100000D01*
X164174076Y-79779474D01*
X164218650Y-79811859D01*
X164400968Y-79904755D01*
X164595582Y-79967990D01*
X164797683Y-80000000D01*
X165002317Y-80000000D01*
X165204417Y-79967990D01*
X165399031Y-79904755D01*
X165581349Y-79811859D01*
X165625921Y-79779474D01*
X164946447Y-79100000D01*
X164952661Y-79100000D01*
X165054394Y-79072741D01*
X165145606Y-79020080D01*
X165220080Y-78945606D01*
X165272741Y-78854394D01*
X165300000Y-78752661D01*
X165300000Y-78746447D01*
X165979474Y-79425921D01*
X166011859Y-79381349D01*
X166104755Y-79199031D01*
X166167990Y-79004417D01*
X166200000Y-78802317D01*
X166200000Y-78597682D01*
X166167990Y-78395582D01*
X166104755Y-78200968D01*
X166011859Y-78018650D01*
X165979474Y-77974077D01*
X165979474Y-77974076D01*
X165300000Y-78653551D01*
X165300000Y-78647339D01*
X165272741Y-78545606D01*
X165220080Y-78454394D01*
X165145606Y-78379920D01*
X165054394Y-78327259D01*
X164952661Y-78300000D01*
X164946446Y-78300000D01*
X165625922Y-77620524D01*
X165625921Y-77620523D01*
X165581359Y-77588147D01*
X165581350Y-77588141D01*
X165399031Y-77495244D01*
X165204417Y-77432009D01*
X165098595Y-77415249D01*
X165002317Y-77400000D01*
X164797683Y-77400000D01*
X164595582Y-77432009D01*
X164400968Y-77495244D01*
X164218644Y-77588143D01*
X164174077Y-77620523D01*
X164174077Y-77620524D01*
X164853554Y-78300000D01*
X164847339Y-78300000D01*
X164745606Y-78327259D01*
X164654394Y-78379920D01*
X164579920Y-78454394D01*
X164527259Y-78545606D01*
X164500000Y-78647339D01*
X164500000Y-78653553D01*
X163820524Y-77974077D01*
X163820523Y-77974077D01*
X163788143Y-78018644D01*
X163695244Y-78200968D01*
X163632009Y-78395582D01*
X163600000Y-78597682D01*
X160671395Y-78597682D01*
X160701610Y-78582287D01*
X160867219Y-78461966D01*
X161011966Y-78317219D01*
X161011968Y-78317215D01*
X161011971Y-78317213D01*
X161065287Y-78243828D01*
X161132287Y-78151610D01*
X161225220Y-77969219D01*
X161288477Y-77774534D01*
X161320500Y-77572352D01*
X161320500Y-77367648D01*
X161309413Y-77297648D01*
X170199500Y-77297648D01*
X170199500Y-77502351D01*
X170231522Y-77704534D01*
X170294781Y-77899223D01*
X170387715Y-78081613D01*
X170508028Y-78247213D01*
X170652786Y-78391971D01*
X170807749Y-78504556D01*
X170818390Y-78512287D01*
X170934607Y-78571503D01*
X171000776Y-78605218D01*
X171000778Y-78605218D01*
X171000781Y-78605220D01*
X171105137Y-78639127D01*
X171195465Y-78668477D01*
X171296557Y-78684488D01*
X171397648Y-78700500D01*
X171397649Y-78700500D01*
X171602351Y-78700500D01*
X171602352Y-78700500D01*
X171804534Y-78668477D01*
X171818842Y-78663827D01*
X171834054Y-78663392D01*
X171848315Y-78658074D01*
X171868268Y-78662414D01*
X171888682Y-78661831D01*
X171902769Y-78669920D01*
X171916588Y-78672926D01*
X171944842Y-78694077D01*
X171964181Y-78713416D01*
X171997666Y-78774739D01*
X172000500Y-78801097D01*
X172000500Y-83644524D01*
X171980815Y-83711563D01*
X171928011Y-83757318D01*
X171858853Y-83767262D01*
X171838183Y-83762455D01*
X171804542Y-83751524D01*
X171804535Y-83751523D01*
X171703443Y-83735511D01*
X171602352Y-83719500D01*
X171397648Y-83719500D01*
X171373329Y-83723351D01*
X171195465Y-83751522D01*
X171000776Y-83814781D01*
X170818386Y-83907715D01*
X170652786Y-84028028D01*
X170508028Y-84172786D01*
X170387715Y-84338386D01*
X170294781Y-84520776D01*
X170231522Y-84715465D01*
X170199500Y-84917648D01*
X170199500Y-85122351D01*
X170231522Y-85324534D01*
X170294781Y-85519223D01*
X170387715Y-85701613D01*
X170508028Y-85867213D01*
X170652786Y-86011971D01*
X170749135Y-86081971D01*
X170818390Y-86132287D01*
X170934607Y-86191503D01*
X171000776Y-86225218D01*
X171000778Y-86225218D01*
X171000781Y-86225220D01*
X171105137Y-86259127D01*
X171195465Y-86288477D01*
X171296557Y-86304488D01*
X171397648Y-86320500D01*
X171397649Y-86320500D01*
X171602351Y-86320500D01*
X171602352Y-86320500D01*
X171804534Y-86288477D01*
X171804539Y-86288475D01*
X171804541Y-86288475D01*
X171838180Y-86277545D01*
X171908021Y-86275548D01*
X171967854Y-86311628D01*
X171998684Y-86374328D01*
X172000500Y-86395475D01*
X172000500Y-88485698D01*
X171980815Y-88552737D01*
X171928011Y-88598492D01*
X171858853Y-88608436D01*
X171857104Y-88608172D01*
X171802352Y-88599500D01*
X171597648Y-88599500D01*
X171573329Y-88603351D01*
X171395465Y-88631522D01*
X171200776Y-88694781D01*
X171018386Y-88787715D01*
X170852786Y-88908028D01*
X170708028Y-89052786D01*
X170587715Y-89218386D01*
X170494781Y-89400776D01*
X170431522Y-89595465D01*
X170399500Y-89797648D01*
X170399500Y-90002351D01*
X170431522Y-90204534D01*
X170494781Y-90399223D01*
X170587715Y-90581613D01*
X170708028Y-90747213D01*
X170852786Y-90891971D01*
X171007749Y-91004556D01*
X171018390Y-91012287D01*
X171134607Y-91071503D01*
X171200776Y-91105218D01*
X171200778Y-91105218D01*
X171200781Y-91105220D01*
X171266108Y-91126446D01*
X171395465Y-91168477D01*
X171423555Y-91172926D01*
X171597648Y-91200500D01*
X171597649Y-91200500D01*
X171802351Y-91200500D01*
X171802352Y-91200500D01*
X172004534Y-91168477D01*
X172018842Y-91163827D01*
X172034054Y-91163392D01*
X172048315Y-91158074D01*
X172068268Y-91162414D01*
X172088682Y-91161831D01*
X172102769Y-91169920D01*
X172116588Y-91172926D01*
X172144842Y-91194077D01*
X172164181Y-91213416D01*
X172197666Y-91274739D01*
X172200500Y-91301097D01*
X172200500Y-96144524D01*
X172180815Y-96211563D01*
X172128011Y-96257318D01*
X172058853Y-96267262D01*
X172038183Y-96262455D01*
X172004542Y-96251524D01*
X172004535Y-96251523D01*
X171903443Y-96235511D01*
X171802352Y-96219500D01*
X171597648Y-96219500D01*
X171573329Y-96223351D01*
X171395465Y-96251522D01*
X171200776Y-96314781D01*
X171018386Y-96407715D01*
X170852786Y-96528028D01*
X170708028Y-96672786D01*
X170587715Y-96838386D01*
X170494781Y-97020776D01*
X170431522Y-97215465D01*
X170399500Y-97417648D01*
X170399500Y-97622351D01*
X170431522Y-97824534D01*
X170494781Y-98019223D01*
X170513353Y-98055671D01*
X170582060Y-98190516D01*
X170587715Y-98201613D01*
X170708028Y-98367213D01*
X170852786Y-98511971D01*
X171004742Y-98622371D01*
X171018390Y-98632287D01*
X171134607Y-98691503D01*
X171200776Y-98725218D01*
X171200778Y-98725218D01*
X171200781Y-98725220D01*
X171292816Y-98755124D01*
X171395465Y-98788477D01*
X171496557Y-98804488D01*
X171597648Y-98820500D01*
X171597649Y-98820500D01*
X171802351Y-98820500D01*
X171802352Y-98820500D01*
X172004534Y-98788477D01*
X172004539Y-98788475D01*
X172004541Y-98788475D01*
X172038180Y-98777545D01*
X172108021Y-98775548D01*
X172167854Y-98811628D01*
X172198684Y-98874328D01*
X172200500Y-98895475D01*
X172200500Y-101701537D01*
X172180815Y-101768576D01*
X172128011Y-101814331D01*
X172058853Y-101824275D01*
X172057102Y-101824010D01*
X171947217Y-101806606D01*
X171902352Y-101799500D01*
X171697648Y-101799500D01*
X171673329Y-101803351D01*
X171495465Y-101831522D01*
X171300776Y-101894781D01*
X171118386Y-101987715D01*
X170952786Y-102108028D01*
X170808028Y-102252786D01*
X170687715Y-102418386D01*
X170594781Y-102600776D01*
X170531522Y-102795465D01*
X170499500Y-102997648D01*
X170499500Y-103202351D01*
X170531522Y-103404534D01*
X170594781Y-103599223D01*
X170687715Y-103781613D01*
X170808028Y-103947213D01*
X170952786Y-104091971D01*
X171104934Y-104202511D01*
X171118390Y-104212287D01*
X171234607Y-104271503D01*
X171300776Y-104305218D01*
X171300778Y-104305218D01*
X171300781Y-104305220D01*
X171405137Y-104339127D01*
X171495465Y-104368477D01*
X171522387Y-104372741D01*
X171697648Y-104400500D01*
X171697649Y-104400500D01*
X171902351Y-104400500D01*
X171902352Y-104400500D01*
X172104534Y-104368477D01*
X172278515Y-104311947D01*
X176150000Y-104311947D01*
X176150000Y-104548052D01*
X176186934Y-104781247D01*
X176259897Y-105005802D01*
X176367087Y-105216174D01*
X176427338Y-105299104D01*
X176427340Y-105299105D01*
X177126212Y-104600233D01*
X177137482Y-104642292D01*
X177209890Y-104767708D01*
X177312292Y-104870110D01*
X177437708Y-104942518D01*
X177479765Y-104953787D01*
X176780893Y-105652658D01*
X176863828Y-105712914D01*
X177074197Y-105820102D01*
X177298752Y-105893065D01*
X177298751Y-105893065D01*
X177531948Y-105930000D01*
X177768052Y-105930000D01*
X178001247Y-105893065D01*
X178225802Y-105820102D01*
X178436163Y-105712918D01*
X178436169Y-105712914D01*
X178519104Y-105652658D01*
X178519105Y-105652658D01*
X177820233Y-104953787D01*
X177862292Y-104942518D01*
X177987708Y-104870110D01*
X178090110Y-104767708D01*
X178162518Y-104642292D01*
X178173787Y-104600233D01*
X178872658Y-105299105D01*
X178872658Y-105299104D01*
X178932914Y-105216169D01*
X178932918Y-105216163D01*
X179040102Y-105005802D01*
X179113065Y-104781247D01*
X179150000Y-104548052D01*
X179150000Y-104311947D01*
X182650000Y-104311947D01*
X182650000Y-104548052D01*
X182686934Y-104781247D01*
X182759897Y-105005802D01*
X182867087Y-105216174D01*
X182927338Y-105299104D01*
X182927340Y-105299105D01*
X183626212Y-104600233D01*
X183637482Y-104642292D01*
X183709890Y-104767708D01*
X183812292Y-104870110D01*
X183937708Y-104942518D01*
X183979765Y-104953787D01*
X183280893Y-105652658D01*
X183363828Y-105712914D01*
X183574197Y-105820102D01*
X183798752Y-105893065D01*
X183798751Y-105893065D01*
X184031948Y-105930000D01*
X184268052Y-105930000D01*
X184501247Y-105893065D01*
X184725802Y-105820102D01*
X184936163Y-105712918D01*
X184936169Y-105712914D01*
X185019104Y-105652658D01*
X185019105Y-105652658D01*
X184320233Y-104953787D01*
X184362292Y-104942518D01*
X184487708Y-104870110D01*
X184590110Y-104767708D01*
X184662518Y-104642292D01*
X184673787Y-104600233D01*
X185372658Y-105299105D01*
X185372658Y-105299104D01*
X185432914Y-105216169D01*
X185432918Y-105216163D01*
X185540102Y-105005802D01*
X185613065Y-104781247D01*
X185650000Y-104548052D01*
X185650000Y-104311947D01*
X185613065Y-104078752D01*
X185540102Y-103854197D01*
X185432914Y-103643828D01*
X185372658Y-103560894D01*
X185372658Y-103560893D01*
X184673787Y-104259765D01*
X184662518Y-104217708D01*
X184590110Y-104092292D01*
X184487708Y-103989890D01*
X184362292Y-103917482D01*
X184320234Y-103906212D01*
X185019105Y-103207340D01*
X185019104Y-103207338D01*
X184936174Y-103147087D01*
X184725802Y-103039897D01*
X184501247Y-102966934D01*
X184501248Y-102966934D01*
X184268052Y-102930000D01*
X184031948Y-102930000D01*
X183798752Y-102966934D01*
X183574197Y-103039897D01*
X183363830Y-103147084D01*
X183280894Y-103207340D01*
X183979766Y-103906212D01*
X183937708Y-103917482D01*
X183812292Y-103989890D01*
X183709890Y-104092292D01*
X183637482Y-104217708D01*
X183626212Y-104259766D01*
X182927340Y-103560894D01*
X182867084Y-103643830D01*
X182759897Y-103854197D01*
X182686934Y-104078752D01*
X182650000Y-104311947D01*
X179150000Y-104311947D01*
X179113065Y-104078752D01*
X179040102Y-103854197D01*
X178932914Y-103643828D01*
X178872658Y-103560894D01*
X178872658Y-103560893D01*
X178173787Y-104259765D01*
X178162518Y-104217708D01*
X178090110Y-104092292D01*
X177987708Y-103989890D01*
X177862292Y-103917482D01*
X177820234Y-103906212D01*
X178519105Y-103207340D01*
X178519104Y-103207339D01*
X178436174Y-103147087D01*
X178225802Y-103039897D01*
X178001247Y-102966934D01*
X178001248Y-102966934D01*
X177768052Y-102930000D01*
X177531948Y-102930000D01*
X177298752Y-102966934D01*
X177074197Y-103039897D01*
X176863830Y-103147084D01*
X176780894Y-103207340D01*
X177479766Y-103906212D01*
X177437708Y-103917482D01*
X177312292Y-103989890D01*
X177209890Y-104092292D01*
X177137482Y-104217708D01*
X177126212Y-104259765D01*
X176427340Y-103560894D01*
X176367084Y-103643830D01*
X176259897Y-103854197D01*
X176186934Y-104078752D01*
X176150000Y-104311947D01*
X172278515Y-104311947D01*
X172299219Y-104305220D01*
X172481610Y-104212287D01*
X172647219Y-104091966D01*
X172791966Y-103947219D01*
X172791968Y-103947215D01*
X172791971Y-103947213D01*
X172859550Y-103854197D01*
X172912287Y-103781610D01*
X173005220Y-103599219D01*
X173068477Y-103404534D01*
X173100500Y-103202352D01*
X173100500Y-102997648D01*
X173068477Y-102795466D01*
X173063826Y-102781154D01*
X173061832Y-102711315D01*
X173094074Y-102655161D01*
X173281520Y-102467716D01*
X173360577Y-102330784D01*
X173401501Y-102178057D01*
X173401501Y-102019942D01*
X173401501Y-102012347D01*
X173401500Y-102012329D01*
X173401500Y-95131902D01*
X176149500Y-95131902D01*
X176149500Y-95368097D01*
X176186446Y-95601368D01*
X176259433Y-95825996D01*
X176338298Y-95980776D01*
X176366657Y-96036433D01*
X176505483Y-96227510D01*
X176672490Y-96394517D01*
X176863567Y-96533343D01*
X176959751Y-96582351D01*
X177074003Y-96640566D01*
X177074005Y-96640566D01*
X177074008Y-96640568D01*
X177188328Y-96677713D01*
X177298631Y-96713553D01*
X177531903Y-96750500D01*
X177531908Y-96750500D01*
X177768097Y-96750500D01*
X178001368Y-96713553D01*
X178225992Y-96640568D01*
X178436433Y-96533343D01*
X178627510Y-96394517D01*
X178794517Y-96227510D01*
X178933343Y-96036433D01*
X179040568Y-95825992D01*
X179113553Y-95601368D01*
X179150500Y-95368097D01*
X179150500Y-95131902D01*
X182649500Y-95131902D01*
X182649500Y-95368097D01*
X182686446Y-95601368D01*
X182759433Y-95825996D01*
X182838298Y-95980776D01*
X182866657Y-96036433D01*
X183005483Y-96227510D01*
X183172490Y-96394517D01*
X183363567Y-96533343D01*
X183459751Y-96582351D01*
X183574003Y-96640566D01*
X183574005Y-96640566D01*
X183574008Y-96640568D01*
X183688328Y-96677713D01*
X183798631Y-96713553D01*
X184031903Y-96750500D01*
X184031908Y-96750500D01*
X184268097Y-96750500D01*
X184501368Y-96713553D01*
X184725992Y-96640568D01*
X184936433Y-96533343D01*
X185127510Y-96394517D01*
X185294517Y-96227510D01*
X185433343Y-96036433D01*
X185540568Y-95825992D01*
X185613553Y-95601368D01*
X185650500Y-95368097D01*
X185650500Y-95131902D01*
X185613553Y-94898631D01*
X185565513Y-94750781D01*
X185540568Y-94674008D01*
X185540566Y-94674005D01*
X185540566Y-94674003D01*
X185433342Y-94463566D01*
X185294517Y-94272490D01*
X185127510Y-94105483D01*
X184936433Y-93966657D01*
X184725996Y-93859433D01*
X184501368Y-93786446D01*
X184268097Y-93749500D01*
X184268092Y-93749500D01*
X184031908Y-93749500D01*
X184031903Y-93749500D01*
X183798631Y-93786446D01*
X183574003Y-93859433D01*
X183363566Y-93966657D01*
X183259163Y-94042511D01*
X183172490Y-94105483D01*
X183172488Y-94105485D01*
X183172487Y-94105485D01*
X183005485Y-94272487D01*
X183005485Y-94272488D01*
X183005483Y-94272490D01*
X182945862Y-94354550D01*
X182866657Y-94463566D01*
X182759433Y-94674003D01*
X182686446Y-94898631D01*
X182649500Y-95131902D01*
X179150500Y-95131902D01*
X179113553Y-94898631D01*
X179065513Y-94750781D01*
X179040568Y-94674008D01*
X179040566Y-94674005D01*
X179040566Y-94674003D01*
X178933342Y-94463566D01*
X178794517Y-94272490D01*
X178627510Y-94105483D01*
X178436433Y-93966657D01*
X178225996Y-93859433D01*
X178001368Y-93786446D01*
X177768097Y-93749500D01*
X177768092Y-93749500D01*
X177531908Y-93749500D01*
X177531903Y-93749500D01*
X177298631Y-93786446D01*
X177074003Y-93859433D01*
X176863566Y-93966657D01*
X176759163Y-94042511D01*
X176672490Y-94105483D01*
X176672488Y-94105485D01*
X176672487Y-94105485D01*
X176505485Y-94272487D01*
X176505485Y-94272488D01*
X176505483Y-94272490D01*
X176445862Y-94354550D01*
X176366657Y-94463566D01*
X176259433Y-94674003D01*
X176186446Y-94898631D01*
X176149500Y-95131902D01*
X173401500Y-95131902D01*
X173401500Y-90921945D01*
X173401500Y-90921943D01*
X173360577Y-90769216D01*
X173360577Y-90769215D01*
X173302844Y-90669219D01*
X173281520Y-90632284D01*
X173281183Y-90631947D01*
X176150000Y-90631947D01*
X176150000Y-90868052D01*
X176186934Y-91101247D01*
X176259897Y-91325802D01*
X176367087Y-91536174D01*
X176427338Y-91619104D01*
X176427340Y-91619105D01*
X177126212Y-90920233D01*
X177137482Y-90962292D01*
X177209890Y-91087708D01*
X177312292Y-91190110D01*
X177437708Y-91262518D01*
X177479765Y-91273787D01*
X176780893Y-91972658D01*
X176863828Y-92032914D01*
X177074197Y-92140102D01*
X177298752Y-92213065D01*
X177298751Y-92213065D01*
X177531948Y-92250000D01*
X177768052Y-92250000D01*
X178001247Y-92213065D01*
X178225802Y-92140102D01*
X178436163Y-92032918D01*
X178436169Y-92032914D01*
X178519104Y-91972658D01*
X178519105Y-91972658D01*
X177820233Y-91273787D01*
X177862292Y-91262518D01*
X177987708Y-91190110D01*
X178090110Y-91087708D01*
X178162518Y-90962292D01*
X178173787Y-90920233D01*
X178872658Y-91619105D01*
X178872658Y-91619104D01*
X178932914Y-91536169D01*
X178932918Y-91536163D01*
X179040102Y-91325802D01*
X179113065Y-91101247D01*
X179150000Y-90868052D01*
X179150000Y-90631947D01*
X182650000Y-90631947D01*
X182650000Y-90868052D01*
X182686934Y-91101247D01*
X182759897Y-91325802D01*
X182867087Y-91536174D01*
X182927338Y-91619104D01*
X182927340Y-91619105D01*
X183626212Y-90920233D01*
X183637482Y-90962292D01*
X183709890Y-91087708D01*
X183812292Y-91190110D01*
X183937708Y-91262518D01*
X183979765Y-91273787D01*
X183280893Y-91972658D01*
X183363828Y-92032914D01*
X183574197Y-92140102D01*
X183798752Y-92213065D01*
X183798751Y-92213065D01*
X184031948Y-92250000D01*
X184268052Y-92250000D01*
X184501247Y-92213065D01*
X184725802Y-92140102D01*
X184936163Y-92032918D01*
X184936169Y-92032914D01*
X185019104Y-91972658D01*
X185019105Y-91972658D01*
X184320233Y-91273787D01*
X184362292Y-91262518D01*
X184487708Y-91190110D01*
X184590110Y-91087708D01*
X184662518Y-90962292D01*
X184673787Y-90920233D01*
X185372658Y-91619105D01*
X185372658Y-91619104D01*
X185432914Y-91536169D01*
X185432918Y-91536163D01*
X185540102Y-91325802D01*
X185613065Y-91101247D01*
X185650000Y-90868052D01*
X185650000Y-90631947D01*
X185613065Y-90398752D01*
X185540102Y-90174197D01*
X185432914Y-89963828D01*
X185372658Y-89880894D01*
X185372658Y-89880893D01*
X184673787Y-90579765D01*
X184662518Y-90537708D01*
X184590110Y-90412292D01*
X184487708Y-90309890D01*
X184362292Y-90237482D01*
X184320234Y-90226212D01*
X185019105Y-89527340D01*
X185019104Y-89527338D01*
X184936174Y-89467087D01*
X184725802Y-89359897D01*
X184501247Y-89286934D01*
X184501248Y-89286934D01*
X184268052Y-89250000D01*
X184031948Y-89250000D01*
X183798752Y-89286934D01*
X183574197Y-89359897D01*
X183363830Y-89467084D01*
X183280894Y-89527340D01*
X183979766Y-90226212D01*
X183937708Y-90237482D01*
X183812292Y-90309890D01*
X183709890Y-90412292D01*
X183637482Y-90537708D01*
X183626212Y-90579766D01*
X182927340Y-89880894D01*
X182867084Y-89963830D01*
X182759897Y-90174197D01*
X182686934Y-90398752D01*
X182650000Y-90631947D01*
X179150000Y-90631947D01*
X179113065Y-90398752D01*
X179040102Y-90174197D01*
X178932914Y-89963828D01*
X178872658Y-89880894D01*
X178872658Y-89880893D01*
X178173787Y-90579765D01*
X178162518Y-90537708D01*
X178090110Y-90412292D01*
X177987708Y-90309890D01*
X177862292Y-90237482D01*
X177820234Y-90226212D01*
X178519105Y-89527340D01*
X178519104Y-89527339D01*
X178436174Y-89467087D01*
X178225802Y-89359897D01*
X178001247Y-89286934D01*
X178001248Y-89286934D01*
X177768052Y-89250000D01*
X177531948Y-89250000D01*
X177298752Y-89286934D01*
X177074197Y-89359897D01*
X176863830Y-89467084D01*
X176780894Y-89527340D01*
X177479766Y-90226212D01*
X177437708Y-90237482D01*
X177312292Y-90309890D01*
X177209890Y-90412292D01*
X177137482Y-90537708D01*
X177126212Y-90579765D01*
X176427340Y-89880894D01*
X176367084Y-89963830D01*
X176259897Y-90174197D01*
X176186934Y-90398752D01*
X176150000Y-90631947D01*
X173281183Y-90631947D01*
X173169716Y-90520480D01*
X173169715Y-90520479D01*
X173165385Y-90516149D01*
X173165374Y-90516139D01*
X172994077Y-90344842D01*
X172960592Y-90283519D01*
X172963828Y-90218841D01*
X172966048Y-90212009D01*
X172968477Y-90204534D01*
X173000500Y-90002352D01*
X173000500Y-89797648D01*
X172968477Y-89595466D01*
X172963067Y-89578818D01*
X172962415Y-89576504D01*
X172962762Y-89543900D01*
X172961831Y-89511318D01*
X172963134Y-89509048D01*
X172963160Y-89506638D01*
X172973838Y-89490404D01*
X172994074Y-89455161D01*
X173081520Y-89367716D01*
X173160577Y-89230784D01*
X173190534Y-89118981D01*
X173201500Y-89078058D01*
X173201500Y-88919943D01*
X173201500Y-83411902D01*
X176149500Y-83411902D01*
X176149500Y-83648097D01*
X176186446Y-83881368D01*
X176259433Y-84105996D01*
X176329129Y-84242781D01*
X176366657Y-84316433D01*
X176505483Y-84507510D01*
X176672490Y-84674517D01*
X176863567Y-84813343D01*
X176962991Y-84864002D01*
X177074003Y-84920566D01*
X177074005Y-84920566D01*
X177074008Y-84920568D01*
X177194412Y-84959689D01*
X177298631Y-84993553D01*
X177531903Y-85030500D01*
X177531908Y-85030500D01*
X177768097Y-85030500D01*
X178001368Y-84993553D01*
X178225992Y-84920568D01*
X178436433Y-84813343D01*
X178627510Y-84674517D01*
X178794517Y-84507510D01*
X178933343Y-84316433D01*
X179040568Y-84105992D01*
X179113553Y-83881368D01*
X179118205Y-83851994D01*
X179150500Y-83648097D01*
X179150500Y-83411902D01*
X182649500Y-83411902D01*
X182649500Y-83648097D01*
X182686446Y-83881368D01*
X182759433Y-84105996D01*
X182829129Y-84242781D01*
X182866657Y-84316433D01*
X183005483Y-84507510D01*
X183172490Y-84674517D01*
X183363567Y-84813343D01*
X183462991Y-84864002D01*
X183574003Y-84920566D01*
X183574005Y-84920566D01*
X183574008Y-84920568D01*
X183694412Y-84959689D01*
X183798631Y-84993553D01*
X184031903Y-85030500D01*
X184031908Y-85030500D01*
X184268097Y-85030500D01*
X184501368Y-84993553D01*
X184725992Y-84920568D01*
X184936433Y-84813343D01*
X185127510Y-84674517D01*
X185294517Y-84507510D01*
X185433343Y-84316433D01*
X185540568Y-84105992D01*
X185613553Y-83881368D01*
X185618205Y-83851994D01*
X185650500Y-83648097D01*
X185650500Y-83411902D01*
X185613553Y-83178631D01*
X185540566Y-82954003D01*
X185433342Y-82743566D01*
X185294517Y-82552490D01*
X185127510Y-82385483D01*
X184936433Y-82246657D01*
X184934094Y-82245465D01*
X184725996Y-82139433D01*
X184501368Y-82066446D01*
X184268097Y-82029500D01*
X184268092Y-82029500D01*
X184031908Y-82029500D01*
X184031903Y-82029500D01*
X183798631Y-82066446D01*
X183574003Y-82139433D01*
X183363566Y-82246657D01*
X183254550Y-82325862D01*
X183172490Y-82385483D01*
X183172488Y-82385485D01*
X183172487Y-82385485D01*
X183005485Y-82552487D01*
X183005485Y-82552488D01*
X183005483Y-82552490D01*
X182945862Y-82634550D01*
X182866657Y-82743566D01*
X182759433Y-82954003D01*
X182686446Y-83178631D01*
X182649500Y-83411902D01*
X179150500Y-83411902D01*
X179113553Y-83178631D01*
X179040566Y-82954003D01*
X178933342Y-82743566D01*
X178794517Y-82552490D01*
X178627510Y-82385483D01*
X178436433Y-82246657D01*
X178434094Y-82245465D01*
X178225996Y-82139433D01*
X178001368Y-82066446D01*
X177768097Y-82029500D01*
X177768092Y-82029500D01*
X177531908Y-82029500D01*
X177531903Y-82029500D01*
X177298631Y-82066446D01*
X177074003Y-82139433D01*
X176863566Y-82246657D01*
X176754550Y-82325862D01*
X176672490Y-82385483D01*
X176672488Y-82385485D01*
X176672487Y-82385485D01*
X176505485Y-82552487D01*
X176505485Y-82552488D01*
X176505483Y-82552490D01*
X176445862Y-82634550D01*
X176366657Y-82743566D01*
X176259433Y-82954003D01*
X176186446Y-83178631D01*
X176149500Y-83411902D01*
X173201500Y-83411902D01*
X173201500Y-78911947D01*
X176150000Y-78911947D01*
X176150000Y-79148052D01*
X176186934Y-79381247D01*
X176259897Y-79605802D01*
X176367087Y-79816174D01*
X176427338Y-79899104D01*
X176427340Y-79899105D01*
X177126212Y-79200233D01*
X177137482Y-79242292D01*
X177209890Y-79367708D01*
X177312292Y-79470110D01*
X177437708Y-79542518D01*
X177479765Y-79553787D01*
X176780893Y-80252658D01*
X176863828Y-80312914D01*
X177074197Y-80420102D01*
X177298752Y-80493065D01*
X177298751Y-80493065D01*
X177531948Y-80530000D01*
X177768052Y-80530000D01*
X178001247Y-80493065D01*
X178225802Y-80420102D01*
X178436163Y-80312918D01*
X178436169Y-80312914D01*
X178519104Y-80252658D01*
X178519105Y-80252658D01*
X177820233Y-79553787D01*
X177862292Y-79542518D01*
X177987708Y-79470110D01*
X178090110Y-79367708D01*
X178162518Y-79242292D01*
X178173787Y-79200233D01*
X178872658Y-79899105D01*
X178872658Y-79899104D01*
X178932914Y-79816169D01*
X178932918Y-79816163D01*
X179040102Y-79605802D01*
X179113065Y-79381247D01*
X179150000Y-79148052D01*
X179150000Y-78911947D01*
X182650000Y-78911947D01*
X182650000Y-79148052D01*
X182686934Y-79381247D01*
X182759897Y-79605802D01*
X182867087Y-79816174D01*
X182927338Y-79899104D01*
X182927340Y-79899105D01*
X183626212Y-79200233D01*
X183637482Y-79242292D01*
X183709890Y-79367708D01*
X183812292Y-79470110D01*
X183937708Y-79542518D01*
X183979765Y-79553787D01*
X183280893Y-80252658D01*
X183363828Y-80312914D01*
X183574197Y-80420102D01*
X183798752Y-80493065D01*
X183798751Y-80493065D01*
X184031948Y-80530000D01*
X184268052Y-80530000D01*
X184501247Y-80493065D01*
X184725802Y-80420102D01*
X184936163Y-80312918D01*
X184936169Y-80312914D01*
X185019104Y-80252658D01*
X185019105Y-80252658D01*
X184320233Y-79553787D01*
X184362292Y-79542518D01*
X184487708Y-79470110D01*
X184590110Y-79367708D01*
X184662518Y-79242292D01*
X184673787Y-79200233D01*
X185372658Y-79899105D01*
X185372658Y-79899104D01*
X185432914Y-79816169D01*
X185432918Y-79816163D01*
X185540102Y-79605802D01*
X185613065Y-79381247D01*
X185650000Y-79148052D01*
X185650000Y-78911947D01*
X185613065Y-78678752D01*
X185540102Y-78454197D01*
X185432914Y-78243828D01*
X185372658Y-78160894D01*
X185372658Y-78160893D01*
X184673787Y-78859765D01*
X184662518Y-78817708D01*
X184590110Y-78692292D01*
X184487708Y-78589890D01*
X184362292Y-78517482D01*
X184320234Y-78506212D01*
X185019105Y-77807340D01*
X185019104Y-77807338D01*
X184936174Y-77747087D01*
X184725802Y-77639897D01*
X184501247Y-77566934D01*
X184501248Y-77566934D01*
X184268052Y-77530000D01*
X184031948Y-77530000D01*
X183798752Y-77566934D01*
X183574197Y-77639897D01*
X183363830Y-77747084D01*
X183280894Y-77807340D01*
X183979766Y-78506212D01*
X183937708Y-78517482D01*
X183812292Y-78589890D01*
X183709890Y-78692292D01*
X183637482Y-78817708D01*
X183626212Y-78859766D01*
X182927340Y-78160894D01*
X182867084Y-78243830D01*
X182759897Y-78454197D01*
X182686934Y-78678752D01*
X182650000Y-78911947D01*
X179150000Y-78911947D01*
X179113065Y-78678752D01*
X179040102Y-78454197D01*
X178932914Y-78243828D01*
X178872658Y-78160894D01*
X178872658Y-78160893D01*
X178173787Y-78859765D01*
X178162518Y-78817708D01*
X178090110Y-78692292D01*
X177987708Y-78589890D01*
X177862292Y-78517482D01*
X177820234Y-78506212D01*
X178519105Y-77807340D01*
X178519104Y-77807339D01*
X178436174Y-77747087D01*
X178225802Y-77639897D01*
X178001247Y-77566934D01*
X178001248Y-77566934D01*
X177768052Y-77530000D01*
X177531948Y-77530000D01*
X177298752Y-77566934D01*
X177074197Y-77639897D01*
X176863830Y-77747084D01*
X176780894Y-77807340D01*
X177479766Y-78506212D01*
X177437708Y-78517482D01*
X177312292Y-78589890D01*
X177209890Y-78692292D01*
X177137482Y-78817708D01*
X177126212Y-78859765D01*
X176427340Y-78160894D01*
X176367084Y-78243830D01*
X176259897Y-78454197D01*
X176186934Y-78678752D01*
X176150000Y-78911947D01*
X173201500Y-78911947D01*
X173201500Y-78421943D01*
X173184000Y-78356632D01*
X173160577Y-78269215D01*
X173119468Y-78198013D01*
X173119468Y-78198011D01*
X173081524Y-78132290D01*
X173081521Y-78132286D01*
X173081520Y-78132284D01*
X172969716Y-78020480D01*
X172969715Y-78020479D01*
X172965385Y-78016149D01*
X172965374Y-78016139D01*
X172794077Y-77844842D01*
X172760592Y-77783519D01*
X172763828Y-77718841D01*
X172768477Y-77704534D01*
X172800500Y-77502352D01*
X172800500Y-77297648D01*
X172768477Y-77095466D01*
X172705220Y-76900781D01*
X172705218Y-76900778D01*
X172705218Y-76900776D01*
X172671503Y-76834607D01*
X172612287Y-76718390D01*
X172604556Y-76707749D01*
X172491971Y-76552786D01*
X172347213Y-76408028D01*
X172181613Y-76287715D01*
X172181612Y-76287714D01*
X172181610Y-76287713D01*
X172124653Y-76258691D01*
X171999223Y-76194781D01*
X171804534Y-76131522D01*
X171629995Y-76103878D01*
X171602352Y-76099500D01*
X171397648Y-76099500D01*
X171373329Y-76103351D01*
X171195465Y-76131522D01*
X171000776Y-76194781D01*
X170818386Y-76287715D01*
X170652786Y-76408028D01*
X170508028Y-76552786D01*
X170387715Y-76718386D01*
X170294781Y-76900776D01*
X170231522Y-77095465D01*
X170199500Y-77297648D01*
X161309413Y-77297648D01*
X161288477Y-77165466D01*
X161225220Y-76970781D01*
X161225218Y-76970778D01*
X161225218Y-76970776D01*
X161189551Y-76900776D01*
X161132287Y-76788390D01*
X161124556Y-76777749D01*
X161011971Y-76622786D01*
X160867213Y-76478028D01*
X160701614Y-76357715D01*
X160695006Y-76354348D01*
X160608917Y-76310483D01*
X160558123Y-76262511D01*
X160541328Y-76194690D01*
X160563865Y-76128555D01*
X160608917Y-76089516D01*
X160701610Y-76042287D01*
X160722770Y-76026913D01*
X160867213Y-75921971D01*
X160867215Y-75921968D01*
X160867219Y-75921966D01*
X161011966Y-75777219D01*
X161011968Y-75777215D01*
X161011971Y-75777213D01*
X161064732Y-75704590D01*
X161132287Y-75611610D01*
X161225220Y-75429219D01*
X161288477Y-75234534D01*
X161320500Y-75032352D01*
X161320500Y-74827648D01*
X161288477Y-74625466D01*
X161225220Y-74430781D01*
X161225218Y-74430778D01*
X161225218Y-74430776D01*
X161191503Y-74364607D01*
X161132287Y-74248390D01*
X161124556Y-74237749D01*
X161011971Y-74082786D01*
X160867213Y-73938028D01*
X160701614Y-73817715D01*
X160695006Y-73814348D01*
X160608917Y-73770483D01*
X160558123Y-73722511D01*
X160541328Y-73654690D01*
X160563865Y-73588555D01*
X160608917Y-73549516D01*
X160701610Y-73502287D01*
X160722770Y-73486913D01*
X160867213Y-73381971D01*
X160867215Y-73381968D01*
X160867219Y-73381966D01*
X161011966Y-73237219D01*
X161011968Y-73237215D01*
X161011971Y-73237213D01*
X161064732Y-73164590D01*
X161132287Y-73071610D01*
X161225220Y-72889219D01*
X161288477Y-72694534D01*
X161320500Y-72492352D01*
X161320500Y-72287648D01*
X161288477Y-72085466D01*
X161225220Y-71890781D01*
X161225218Y-71890778D01*
X161225218Y-71890776D01*
X161191503Y-71824607D01*
X161132287Y-71708390D01*
X161124556Y-71697749D01*
X161011971Y-71542786D01*
X160867213Y-71398028D01*
X160701613Y-71277715D01*
X160701612Y-71277714D01*
X160701610Y-71277713D01*
X160634652Y-71243596D01*
X160519223Y-71184781D01*
X160324534Y-71121522D01*
X160149995Y-71093878D01*
X160122352Y-71089500D01*
X159917648Y-71089500D01*
X159893329Y-71093351D01*
X159715465Y-71121522D01*
X159520776Y-71184781D01*
X159338386Y-71277715D01*
X159172786Y-71398028D01*
X159028028Y-71542786D01*
X158907715Y-71708386D01*
X158814781Y-71890776D01*
X158751522Y-72085465D01*
X158719500Y-72287648D01*
X146080500Y-72287648D01*
X146048477Y-72085466D01*
X145985220Y-71890781D01*
X145985218Y-71890778D01*
X145985218Y-71890776D01*
X145951503Y-71824607D01*
X145892287Y-71708390D01*
X145884556Y-71697749D01*
X145771971Y-71542786D01*
X145627213Y-71398028D01*
X145461613Y-71277715D01*
X145461612Y-71277714D01*
X145461610Y-71277713D01*
X145394652Y-71243596D01*
X145279223Y-71184781D01*
X145084534Y-71121522D01*
X144909995Y-71093878D01*
X144882352Y-71089500D01*
X144677648Y-71089500D01*
X144653329Y-71093351D01*
X144475465Y-71121522D01*
X144280776Y-71184781D01*
X144098386Y-71277715D01*
X143932786Y-71398028D01*
X143788028Y-71542786D01*
X143667715Y-71708386D01*
X143574781Y-71890776D01*
X143511522Y-72085465D01*
X143479500Y-72287648D01*
X131383500Y-72287648D01*
X131383500Y-69747648D01*
X163799500Y-69747648D01*
X163799500Y-69952351D01*
X163831522Y-70154534D01*
X163894781Y-70349223D01*
X163987715Y-70531613D01*
X164108028Y-70697213D01*
X164252786Y-70841971D01*
X164407749Y-70954556D01*
X164418390Y-70962287D01*
X164534607Y-71021503D01*
X164600776Y-71055218D01*
X164600778Y-71055218D01*
X164600781Y-71055220D01*
X164705137Y-71089127D01*
X164795465Y-71118477D01*
X164814697Y-71121523D01*
X164997648Y-71150500D01*
X164997649Y-71150500D01*
X165202351Y-71150500D01*
X165202352Y-71150500D01*
X165404534Y-71118477D01*
X165599219Y-71055220D01*
X165781610Y-70962287D01*
X165926005Y-70857379D01*
X165947213Y-70841971D01*
X165947215Y-70841968D01*
X165947219Y-70841966D01*
X166091966Y-70697219D01*
X166091968Y-70697215D01*
X166091971Y-70697213D01*
X166144732Y-70624590D01*
X166212287Y-70531610D01*
X166305220Y-70349219D01*
X166368477Y-70154534D01*
X166400500Y-69952352D01*
X166400500Y-69747648D01*
X171419500Y-69747648D01*
X171419500Y-69952351D01*
X171451522Y-70154534D01*
X171514781Y-70349223D01*
X171607715Y-70531613D01*
X171728028Y-70697213D01*
X171872786Y-70841971D01*
X172027749Y-70954556D01*
X172038390Y-70962287D01*
X172154607Y-71021503D01*
X172220776Y-71055218D01*
X172220778Y-71055218D01*
X172220781Y-71055220D01*
X172325137Y-71089127D01*
X172415465Y-71118477D01*
X172434697Y-71121523D01*
X172617648Y-71150500D01*
X172617649Y-71150500D01*
X172822351Y-71150500D01*
X172822352Y-71150500D01*
X173024534Y-71118477D01*
X173219219Y-71055220D01*
X173401610Y-70962287D01*
X173546005Y-70857379D01*
X173567213Y-70841971D01*
X173567215Y-70841968D01*
X173567219Y-70841966D01*
X173711966Y-70697219D01*
X173711968Y-70697215D01*
X173711971Y-70697213D01*
X173764732Y-70624590D01*
X173832287Y-70531610D01*
X173925220Y-70349219D01*
X173988477Y-70154534D01*
X174020500Y-69952352D01*
X174020500Y-69747648D01*
X174019253Y-69739778D01*
X178939500Y-69739778D01*
X178939500Y-69960221D01*
X178973985Y-70177952D01*
X179042103Y-70387603D01*
X179042104Y-70387606D01*
X179110122Y-70521096D01*
X179115479Y-70531610D01*
X179142187Y-70584025D01*
X179271752Y-70762358D01*
X179271756Y-70762363D01*
X179427636Y-70918243D01*
X179427641Y-70918247D01*
X179583192Y-71031260D01*
X179605978Y-71047815D01*
X179687789Y-71089500D01*
X179802393Y-71147895D01*
X179802396Y-71147896D01*
X179907221Y-71181955D01*
X180012049Y-71216015D01*
X180229778Y-71250500D01*
X180229779Y-71250500D01*
X180450221Y-71250500D01*
X180450222Y-71250500D01*
X180667951Y-71216015D01*
X180877606Y-71147895D01*
X181074022Y-71047815D01*
X181252365Y-70918242D01*
X181302924Y-70867682D01*
X181364245Y-70834198D01*
X181433936Y-70839182D01*
X181489870Y-70881053D01*
X181506786Y-70912030D01*
X181536646Y-70992087D01*
X181536649Y-70992093D01*
X181622809Y-71107187D01*
X181622812Y-71107190D01*
X181737906Y-71193350D01*
X181737913Y-71193354D01*
X181872620Y-71243596D01*
X181872627Y-71243598D01*
X181932155Y-71249999D01*
X181932172Y-71250000D01*
X182630000Y-71250000D01*
X182630000Y-70225277D01*
X182706306Y-70269333D01*
X182820756Y-70300000D01*
X182939244Y-70300000D01*
X183053694Y-70269333D01*
X183130000Y-70225277D01*
X183130000Y-71250000D01*
X183827828Y-71250000D01*
X183827844Y-71249999D01*
X183887372Y-71243598D01*
X183887379Y-71243596D01*
X184022086Y-71193354D01*
X184022093Y-71193350D01*
X184137187Y-71107190D01*
X184137190Y-71107187D01*
X184223350Y-70992093D01*
X184223354Y-70992086D01*
X184273596Y-70857379D01*
X184273598Y-70857372D01*
X184279999Y-70797844D01*
X184280000Y-70797827D01*
X184280000Y-70100000D01*
X183255278Y-70100000D01*
X183299333Y-70023694D01*
X183330000Y-69909244D01*
X183330000Y-69790756D01*
X183299333Y-69676306D01*
X183255278Y-69600000D01*
X184280000Y-69600000D01*
X184280000Y-68902172D01*
X184279999Y-68902155D01*
X184273598Y-68842627D01*
X184273596Y-68842620D01*
X184223354Y-68707913D01*
X184223350Y-68707906D01*
X184137190Y-68592812D01*
X184137187Y-68592809D01*
X184022093Y-68506649D01*
X184022086Y-68506645D01*
X183887379Y-68456403D01*
X183887372Y-68456401D01*
X183827844Y-68450000D01*
X183130000Y-68450000D01*
X183130000Y-69474722D01*
X183053694Y-69430667D01*
X182939244Y-69400000D01*
X182820756Y-69400000D01*
X182706306Y-69430667D01*
X182630000Y-69474722D01*
X182630000Y-68450000D01*
X181932155Y-68450000D01*
X181872627Y-68456401D01*
X181872620Y-68456403D01*
X181737913Y-68506645D01*
X181737906Y-68506649D01*
X181622812Y-68592809D01*
X181622809Y-68592812D01*
X181536649Y-68707906D01*
X181536643Y-68707918D01*
X181506785Y-68787969D01*
X181464914Y-68843903D01*
X181399449Y-68868319D01*
X181331176Y-68853467D01*
X181302923Y-68832316D01*
X181252363Y-68781756D01*
X181252358Y-68781752D01*
X181074025Y-68652187D01*
X181074024Y-68652186D01*
X181074022Y-68652185D01*
X181011096Y-68620122D01*
X180877606Y-68552104D01*
X180877603Y-68552103D01*
X180667952Y-68483985D01*
X180559086Y-68466742D01*
X180450222Y-68449500D01*
X180229778Y-68449500D01*
X180157201Y-68460995D01*
X180012047Y-68483985D01*
X179802396Y-68552103D01*
X179802393Y-68552104D01*
X179605974Y-68652187D01*
X179427641Y-68781752D01*
X179427636Y-68781756D01*
X179271756Y-68937636D01*
X179271752Y-68937641D01*
X179142187Y-69115974D01*
X179042104Y-69312393D01*
X179042103Y-69312396D01*
X178973985Y-69522047D01*
X178939500Y-69739778D01*
X174019253Y-69739778D01*
X173988477Y-69545466D01*
X173980868Y-69522049D01*
X173959127Y-69455137D01*
X173925220Y-69350781D01*
X173925218Y-69350778D01*
X173925218Y-69350776D01*
X173891503Y-69284607D01*
X173832287Y-69168390D01*
X173794205Y-69115974D01*
X173711971Y-69002786D01*
X173567213Y-68858028D01*
X173401613Y-68737715D01*
X173401612Y-68737714D01*
X173401610Y-68737713D01*
X173313067Y-68692598D01*
X173219223Y-68644781D01*
X173024534Y-68581522D01*
X172838799Y-68552105D01*
X172822352Y-68549500D01*
X172617648Y-68549500D01*
X172601201Y-68552105D01*
X172415465Y-68581522D01*
X172220776Y-68644781D01*
X172038386Y-68737715D01*
X171872786Y-68858028D01*
X171728028Y-69002786D01*
X171607715Y-69168386D01*
X171514781Y-69350776D01*
X171451522Y-69545465D01*
X171419500Y-69747648D01*
X166400500Y-69747648D01*
X166400499Y-69747644D01*
X166368477Y-69545465D01*
X166339127Y-69455137D01*
X166305220Y-69350781D01*
X166305218Y-69350778D01*
X166305218Y-69350776D01*
X166271503Y-69284607D01*
X166212287Y-69168390D01*
X166174205Y-69115974D01*
X166091971Y-69002786D01*
X165947213Y-68858028D01*
X165781613Y-68737715D01*
X165781612Y-68737714D01*
X165781610Y-68737713D01*
X165693067Y-68692598D01*
X165599223Y-68644781D01*
X165404534Y-68581522D01*
X165218799Y-68552105D01*
X165202352Y-68549500D01*
X164997648Y-68549500D01*
X164981201Y-68552105D01*
X164795465Y-68581522D01*
X164600776Y-68644781D01*
X164418386Y-68737715D01*
X164252786Y-68858028D01*
X164108028Y-69002786D01*
X163987715Y-69168386D01*
X163894781Y-69350776D01*
X163831522Y-69545465D01*
X163799500Y-69747648D01*
X131383500Y-69747648D01*
X131383500Y-68551773D01*
X131403185Y-68484734D01*
X131434614Y-68451455D01*
X131505464Y-68399981D01*
X131645981Y-68259464D01*
X131762787Y-68098694D01*
X131853005Y-67921632D01*
X131914413Y-67732636D01*
X131945500Y-67536361D01*
X131945500Y-67337639D01*
X131914413Y-67141364D01*
X131853005Y-66952368D01*
X131853005Y-66952367D01*
X131807035Y-66862149D01*
X131762787Y-66775306D01*
X131645981Y-66614536D01*
X131505464Y-66474019D01*
X131344694Y-66357213D01*
X131267360Y-66317809D01*
X131167632Y-66266994D01*
X131167629Y-66266993D01*
X130978637Y-66205587D01*
X130880498Y-66190043D01*
X130782361Y-66174500D01*
X130583639Y-66174500D01*
X130518214Y-66184862D01*
X130387362Y-66205587D01*
X130198370Y-66266993D01*
X130198367Y-66266994D01*
X130021305Y-66357213D01*
X129860533Y-66474021D01*
X129720021Y-66614533D01*
X129603213Y-66775305D01*
X129523485Y-66931780D01*
X129475510Y-66982576D01*
X129407689Y-66999371D01*
X129341554Y-66976833D01*
X129302515Y-66931780D01*
X129283179Y-66893832D01*
X129222787Y-66775306D01*
X129105981Y-66614536D01*
X128965464Y-66474019D01*
X128804694Y-66357213D01*
X128727360Y-66317809D01*
X128627632Y-66266994D01*
X128627629Y-66266993D01*
X128438637Y-66205587D01*
X128340498Y-66190043D01*
X128242361Y-66174500D01*
X128043639Y-66174500D01*
X127978214Y-66184862D01*
X127847362Y-66205587D01*
X127658370Y-66266993D01*
X127658367Y-66266994D01*
X127481305Y-66357213D01*
X127320533Y-66474021D01*
X127180021Y-66614533D01*
X127063213Y-66775305D01*
X126983485Y-66931780D01*
X126935510Y-66982576D01*
X126867689Y-66999371D01*
X126801554Y-66976833D01*
X126762515Y-66931780D01*
X126743179Y-66893832D01*
X126682787Y-66775306D01*
X126565981Y-66614536D01*
X126425464Y-66474019D01*
X126264694Y-66357213D01*
X126187360Y-66317809D01*
X126087632Y-66266994D01*
X126087629Y-66266993D01*
X125898637Y-66205587D01*
X125800498Y-66190043D01*
X125702361Y-66174500D01*
X125503639Y-66174500D01*
X125438214Y-66184862D01*
X125307362Y-66205587D01*
X125118370Y-66266993D01*
X125118367Y-66266994D01*
X124941305Y-66357213D01*
X124780533Y-66474021D01*
X124640021Y-66614533D01*
X124640021Y-66614534D01*
X124640019Y-66614536D01*
X124602273Y-66666489D01*
X124549318Y-66739375D01*
X124493988Y-66782040D01*
X124424374Y-66788019D01*
X124362579Y-66755413D01*
X124328222Y-66694574D01*
X124325000Y-66666489D01*
X124325000Y-66627172D01*
X124324999Y-66627155D01*
X124318598Y-66567627D01*
X124318596Y-66567620D01*
X124268354Y-66432913D01*
X124268350Y-66432906D01*
X124182190Y-66317812D01*
X124182187Y-66317809D01*
X124067093Y-66231649D01*
X124067086Y-66231645D01*
X123932379Y-66181403D01*
X123932372Y-66181401D01*
X123872844Y-66175000D01*
X123313000Y-66175000D01*
X123313000Y-67148184D01*
X123296940Y-67132124D01*
X123210061Y-67081964D01*
X123113160Y-67056000D01*
X123012840Y-67056000D01*
X122915939Y-67081964D01*
X122829060Y-67132124D01*
X122813000Y-67148184D01*
X122813000Y-66175000D01*
X122253155Y-66175000D01*
X122193627Y-66181401D01*
X122193620Y-66181403D01*
X122058913Y-66231645D01*
X122058906Y-66231649D01*
X121943812Y-66317809D01*
X121943809Y-66317812D01*
X121857649Y-66432906D01*
X121857645Y-66432913D01*
X121807403Y-66567620D01*
X121807401Y-66567627D01*
X121801000Y-66627155D01*
X121801000Y-67187000D01*
X122774184Y-67187000D01*
X122758124Y-67203060D01*
X122707964Y-67289939D01*
X122682000Y-67386840D01*
X122682000Y-67487160D01*
X122707964Y-67584061D01*
X122758124Y-67670940D01*
X122774184Y-67687000D01*
X121801000Y-67687000D01*
X121801000Y-68246844D01*
X121807401Y-68306372D01*
X121807403Y-68306379D01*
X121857645Y-68441086D01*
X121857649Y-68441093D01*
X121943809Y-68556187D01*
X121943812Y-68556190D01*
X122058906Y-68642350D01*
X122058913Y-68642354D01*
X122193620Y-68692596D01*
X122193627Y-68692598D01*
X122253155Y-68698999D01*
X122253172Y-68699000D01*
X122813000Y-68699000D01*
X122813000Y-67725816D01*
X122829060Y-67741876D01*
X122915939Y-67792036D01*
X123012840Y-67818000D01*
X123113160Y-67818000D01*
X123210061Y-67792036D01*
X123296940Y-67741876D01*
X123313000Y-67725816D01*
X123313000Y-68699000D01*
X123635500Y-68699000D01*
X123702539Y-68718685D01*
X123748294Y-68771489D01*
X123759500Y-68823000D01*
X123759500Y-97945226D01*
X123739815Y-98012265D01*
X123708387Y-98045542D01*
X123694447Y-98055671D01*
X123637533Y-98097021D01*
X123497021Y-98237533D01*
X123380213Y-98398305D01*
X123300204Y-98555331D01*
X123252229Y-98606127D01*
X123184408Y-98622922D01*
X123118273Y-98600384D01*
X123079234Y-98555331D01*
X122999358Y-98398567D01*
X122972268Y-98361283D01*
X122301000Y-99032551D01*
X122301000Y-99009840D01*
X122275036Y-98912939D01*
X122224876Y-98826060D01*
X122153940Y-98755124D01*
X122067061Y-98704964D01*
X121970160Y-98679000D01*
X121947447Y-98679000D01*
X122618716Y-98007731D01*
X122618715Y-98007730D01*
X122581432Y-97980641D01*
X122404437Y-97890457D01*
X122215522Y-97829075D01*
X122019321Y-97798000D01*
X121820679Y-97798000D01*
X121624479Y-97829075D01*
X121624476Y-97829075D01*
X121435562Y-97890457D01*
X121258564Y-97980643D01*
X121221283Y-98007729D01*
X121221282Y-98007730D01*
X121892554Y-98679000D01*
X121869840Y-98679000D01*
X121772939Y-98704964D01*
X121686060Y-98755124D01*
X121615124Y-98826060D01*
X121564964Y-98912939D01*
X121539000Y-99009840D01*
X121539000Y-99032552D01*
X120867730Y-98361282D01*
X120867729Y-98361283D01*
X120840641Y-98398566D01*
X120760764Y-98555332D01*
X120712790Y-98606127D01*
X120644969Y-98622922D01*
X120578834Y-98600384D01*
X120539796Y-98555332D01*
X120459787Y-98398306D01*
X120342981Y-98237536D01*
X120202464Y-98097019D01*
X120041694Y-97980213D01*
X119864632Y-97889994D01*
X119864629Y-97889993D01*
X119675637Y-97828587D01*
X119577498Y-97813043D01*
X119479361Y-97797500D01*
X119280639Y-97797500D01*
X119215214Y-97807862D01*
X119084362Y-97828587D01*
X118895370Y-97889993D01*
X118895367Y-97889994D01*
X118718305Y-97980213D01*
X118557533Y-98097021D01*
X118417021Y-98237533D01*
X118300213Y-98398305D01*
X118220485Y-98554780D01*
X118172510Y-98605576D01*
X118104689Y-98622371D01*
X118038554Y-98599833D01*
X117999515Y-98554780D01*
X117931752Y-98421789D01*
X117919787Y-98398306D01*
X117802981Y-98237536D01*
X117662464Y-98097019D01*
X117501694Y-97980213D01*
X117324632Y-97889994D01*
X117324629Y-97889993D01*
X117135637Y-97828587D01*
X117037498Y-97813043D01*
X116939361Y-97797500D01*
X116740639Y-97797500D01*
X116675214Y-97807862D01*
X116544362Y-97828587D01*
X116355370Y-97889993D01*
X116355367Y-97889994D01*
X116178305Y-97980213D01*
X116017533Y-98097021D01*
X115877021Y-98237533D01*
X115877021Y-98237534D01*
X115877019Y-98237536D01*
X115839772Y-98288802D01*
X115786817Y-98361688D01*
X115731487Y-98404353D01*
X115661873Y-98410332D01*
X115600078Y-98377726D01*
X115565721Y-98316887D01*
X115562499Y-98288802D01*
X115562499Y-98250129D01*
X115562498Y-98250123D01*
X115562497Y-98250116D01*
X115556091Y-98190517D01*
X115551864Y-98179185D01*
X115505797Y-98055671D01*
X115505793Y-98055664D01*
X115419547Y-97940455D01*
X115419544Y-97940452D01*
X115304335Y-97854206D01*
X115304328Y-97854202D01*
X115169482Y-97803908D01*
X115169483Y-97803908D01*
X115109883Y-97797501D01*
X115109881Y-97797500D01*
X115109873Y-97797500D01*
X115109864Y-97797500D01*
X113490129Y-97797500D01*
X113490123Y-97797501D01*
X113430516Y-97803908D01*
X113295671Y-97854202D01*
X113295664Y-97854206D01*
X113180455Y-97940452D01*
X113180452Y-97940455D01*
X113094206Y-98055664D01*
X113094202Y-98055671D01*
X113043908Y-98190517D01*
X113037501Y-98250116D01*
X113037501Y-98250123D01*
X113037500Y-98250135D01*
X111500500Y-98250135D01*
X111500500Y-65624500D01*
X111520185Y-65557461D01*
X111572989Y-65511706D01*
X111624500Y-65500500D01*
X186375500Y-65500500D01*
X186442539Y-65520185D01*
G37*
G04 #@! TD.AperFunction*
M02*
