M48
; DRILL file {KiCad 9.0.7} date 2026-03-20T14:27:09+0530
; FORMAT={-:-/ absolute / metric / decimal}
; #@! TF.CreationDate,2026-03-20T14:27:09+05:30
; #@! TF.GenerationSoftware,Kicad,Pcbnew,9.0.7
; #@! TF.FileFunction,Plated,1,2,PTH
FMAT,2
METRIC
; #@! TA.AperFunction,Plated,PTH,ViaDrill
T1C0.300
; #@! TA.AperFunction,Plated,PTH,ComponentDrill
T2C0.762
; #@! TA.AperFunction,Plated,PTH,ComponentDrill
T3C0.800
; #@! TA.AperFunction,Plated,PTH,ComponentDrill
T4C0.900
; #@! TA.AperFunction,Plated,PTH,ComponentDrill
T5C1.000
; #@! TA.AperFunction,Plated,PTH,ComponentDrill
T6C1.100
%
G90
G05
T1
X128.4Y-88.6
X131.1Y-84.2
X162.8Y-92.7
X163.4Y-97.8
T2
X114.3Y-99.06
X116.84Y-99.06
X119.38Y-99.06
X121.92Y-99.06
X123.063Y-67.437
X124.46Y-99.06
X125.603Y-67.437
X128.143Y-67.437
X130.683Y-67.437
T3
X164.9Y-78.7
X164.9Y-83.7
X165.1Y-69.85
X165.1Y-91.48
X165.1Y-96.48
X165.4Y-104.0
X165.4Y-109.0
X171.5Y-77.4
X171.5Y-85.02
X171.7Y-89.9
X171.7Y-97.52
X171.8Y-103.1
X171.8Y-110.72
X172.72Y-69.85
T4
X180.34Y-69.85
X182.88Y-69.85
T5
X144.78Y-72.39
X144.78Y-74.93
X144.78Y-77.47
X144.78Y-80.01
X144.78Y-82.55
X144.78Y-85.09
X144.78Y-87.63
X144.78Y-90.17
X144.78Y-92.71
X144.78Y-95.25
X144.78Y-97.79
X144.78Y-100.33
X144.78Y-102.87
X144.78Y-105.41
X144.78Y-107.95
X160.02Y-72.39
X160.02Y-74.93
X160.02Y-77.47
X160.02Y-80.01
X160.02Y-82.55
X160.02Y-85.09
X160.02Y-87.63
X160.02Y-90.17
X160.02Y-92.71
X160.02Y-95.25
X160.02Y-97.79
X160.02Y-100.33
X160.02Y-102.87
X160.02Y-105.41
X160.02Y-107.95
T6
X177.65Y-79.03
X177.65Y-83.53
X177.65Y-90.75
X177.65Y-95.25
X177.65Y-104.43
X177.65Y-108.93
X184.15Y-79.03
X184.15Y-83.53
X184.15Y-90.75
X184.15Y-95.25
X184.15Y-104.43
X184.15Y-108.93
M30
