%TF.GenerationSoftware,KiCad,Pcbnew,9.0.7*%
%TF.CreationDate,2026-03-20T14:27:09+05:30*%
%TF.ProjectId,SPO2_Module,53504f32-5f4d-46f6-9475-6c652e6b6963,rev?*%
%TF.SameCoordinates,Original*%
%TF.FileFunction,Drillmap*%
%TF.FilePolarity,Positive*%
%FSLAX45Y45*%
G04 Gerber Fmt 4.5, Leading zero omitted, Abs format (unit mm)*
G04 Created by KiCad (PCBNEW 9.0.7) date 2026-03-20 14:27:09*
%MOMM*%
%LPD*%
G01*
G04 APERTURE LIST*
%ADD10C,0.050000*%
%ADD11C,0.200000*%
G04 APERTURE END LIST*
D10*
X18700000Y-6500000D02*
X11100000Y-6500000D01*
X18700000Y-11400000D02*
X18700000Y-6500000D01*
X11100000Y-11400000D02*
X18700000Y-11400000D01*
X11100000Y-6500000D02*
X11100000Y-11400000D01*
D11*
X11358277Y-11713984D02*
X11358277Y-11513984D01*
X11358277Y-11513984D02*
X11405896Y-11513984D01*
X11405896Y-11513984D02*
X11434467Y-11523508D01*
X11434467Y-11523508D02*
X11453515Y-11542555D01*
X11453515Y-11542555D02*
X11463039Y-11561603D01*
X11463039Y-11561603D02*
X11472562Y-11599698D01*
X11472562Y-11599698D02*
X11472562Y-11628269D01*
X11472562Y-11628269D02*
X11463039Y-11666365D01*
X11463039Y-11666365D02*
X11453515Y-11685412D01*
X11453515Y-11685412D02*
X11434467Y-11704460D01*
X11434467Y-11704460D02*
X11405896Y-11713984D01*
X11405896Y-11713984D02*
X11358277Y-11713984D01*
X11558277Y-11713984D02*
X11558277Y-11580650D01*
X11558277Y-11618746D02*
X11567801Y-11599698D01*
X11567801Y-11599698D02*
X11577324Y-11590174D01*
X11577324Y-11590174D02*
X11596372Y-11580650D01*
X11596372Y-11580650D02*
X11615420Y-11580650D01*
X11682086Y-11713984D02*
X11682086Y-11580650D01*
X11682086Y-11513984D02*
X11672562Y-11523508D01*
X11672562Y-11523508D02*
X11682086Y-11533031D01*
X11682086Y-11533031D02*
X11691610Y-11523508D01*
X11691610Y-11523508D02*
X11682086Y-11513984D01*
X11682086Y-11513984D02*
X11682086Y-11533031D01*
X11805896Y-11713984D02*
X11786848Y-11704460D01*
X11786848Y-11704460D02*
X11777324Y-11685412D01*
X11777324Y-11685412D02*
X11777324Y-11513984D01*
X11910658Y-11713984D02*
X11891610Y-11704460D01*
X11891610Y-11704460D02*
X11882086Y-11685412D01*
X11882086Y-11685412D02*
X11882086Y-11513984D01*
X12139229Y-11713984D02*
X12139229Y-11513984D01*
X12139229Y-11513984D02*
X12205896Y-11656841D01*
X12205896Y-11656841D02*
X12272562Y-11513984D01*
X12272562Y-11513984D02*
X12272562Y-11713984D01*
X12453515Y-11713984D02*
X12453515Y-11609222D01*
X12453515Y-11609222D02*
X12443991Y-11590174D01*
X12443991Y-11590174D02*
X12424943Y-11580650D01*
X12424943Y-11580650D02*
X12386848Y-11580650D01*
X12386848Y-11580650D02*
X12367801Y-11590174D01*
X12453515Y-11704460D02*
X12434467Y-11713984D01*
X12434467Y-11713984D02*
X12386848Y-11713984D01*
X12386848Y-11713984D02*
X12367801Y-11704460D01*
X12367801Y-11704460D02*
X12358277Y-11685412D01*
X12358277Y-11685412D02*
X12358277Y-11666365D01*
X12358277Y-11666365D02*
X12367801Y-11647317D01*
X12367801Y-11647317D02*
X12386848Y-11637793D01*
X12386848Y-11637793D02*
X12434467Y-11637793D01*
X12434467Y-11637793D02*
X12453515Y-11628269D01*
X12548753Y-11580650D02*
X12548753Y-11780650D01*
X12548753Y-11590174D02*
X12567801Y-11580650D01*
X12567801Y-11580650D02*
X12605896Y-11580650D01*
X12605896Y-11580650D02*
X12624943Y-11590174D01*
X12624943Y-11590174D02*
X12634467Y-11599698D01*
X12634467Y-11599698D02*
X12643991Y-11618746D01*
X12643991Y-11618746D02*
X12643991Y-11675888D01*
X12643991Y-11675888D02*
X12634467Y-11694936D01*
X12634467Y-11694936D02*
X12624943Y-11704460D01*
X12624943Y-11704460D02*
X12605896Y-11713984D01*
X12605896Y-11713984D02*
X12567801Y-11713984D01*
X12567801Y-11713984D02*
X12548753Y-11704460D01*
X12729705Y-11694936D02*
X12739229Y-11704460D01*
X12739229Y-11704460D02*
X12729705Y-11713984D01*
X12729705Y-11713984D02*
X12720182Y-11704460D01*
X12720182Y-11704460D02*
X12729705Y-11694936D01*
X12729705Y-11694936D02*
X12729705Y-11713984D01*
X12729705Y-11590174D02*
X12739229Y-11599698D01*
X12739229Y-11599698D02*
X12729705Y-11609222D01*
X12729705Y-11609222D02*
X12720182Y-11599698D01*
X12720182Y-11599698D02*
X12729705Y-11590174D01*
X12729705Y-11590174D02*
X12729705Y-11609222D01*
M02*
