G04 #@! TF.GenerationSoftware,KiCad,Pcbnew,9.0.7*
G04 #@! TF.CreationDate,2026-03-20T14:30:59+05:30*
G04 #@! TF.ProjectId,SPO2_Module,53504f32-5f4d-46f6-9475-6c652e6b6963,rev?*
G04 #@! TF.SameCoordinates,Original*
G04 #@! TF.FileFunction,Soldermask,Top*
G04 #@! TF.FilePolarity,Negative*
%FSLAX46Y46*%
G04 Gerber Fmt 4.6, Leading zero omitted, Abs format (unit mm)*
G04 Created by KiCad (PCBNEW 9.0.7) date 2026-03-20 14:30:59*
%MOMM*%
%LPD*%
G01*
G04 APERTURE LIST*
%ADD10C,1.524000*%
%ADD11R,1.524000X1.524000*%
%ADD12C,1.600000*%
%ADD13C,1.800000*%
%ADD14R,1.800000X1.800000*%
%ADD15R,1.600000X1.600000*%
%ADD16O,1.600000X1.600000*%
%ADD17C,2.000000*%
G04 APERTURE END LIST*
D10*
X130683000Y-67437000D03*
X128143000Y-67437000D03*
X125603000Y-67437000D03*
D11*
X123063000Y-67437000D03*
D12*
X171500000Y-77400000D03*
X171500000Y-85020000D03*
D10*
X124460000Y-99060000D03*
X121920000Y-99060000D03*
X119380000Y-99060000D03*
X116840000Y-99060000D03*
D11*
X114300000Y-99060000D03*
D13*
X180340000Y-69850000D03*
D14*
X182880000Y-69850000D03*
D12*
X172720000Y-69850000D03*
X165100000Y-69850000D03*
D15*
X160020000Y-107950000D03*
D16*
X160020000Y-105410000D03*
X160020000Y-102870000D03*
X160020000Y-100330000D03*
X160020000Y-97790000D03*
X160020000Y-95250000D03*
X160020000Y-92710000D03*
X160020000Y-90170000D03*
X160020000Y-87630000D03*
X160020000Y-85090000D03*
X160020000Y-82550000D03*
X160020000Y-80010000D03*
X160020000Y-77470000D03*
X160020000Y-74930000D03*
X160020000Y-72390000D03*
X144780000Y-72390000D03*
X144780000Y-74930000D03*
X144780000Y-77470000D03*
X144780000Y-80010000D03*
X144780000Y-82550000D03*
X144780000Y-85090000D03*
X144780000Y-87630000D03*
X144780000Y-90170000D03*
X144780000Y-92710000D03*
X144780000Y-95250000D03*
X144780000Y-97790000D03*
X144780000Y-100330000D03*
X144780000Y-102870000D03*
X144780000Y-105410000D03*
X144780000Y-107950000D03*
D12*
X164900000Y-78700000D03*
X164900000Y-83700000D03*
D17*
X184150000Y-83530000D03*
X177650000Y-83530000D03*
X184150000Y-79030000D03*
X177650000Y-79030000D03*
X184150000Y-95250000D03*
X177650000Y-95250000D03*
X184150000Y-90750000D03*
X177650000Y-90750000D03*
D12*
X171700000Y-97520000D03*
X171700000Y-89900000D03*
X165100000Y-91480000D03*
X165100000Y-96480000D03*
X165400000Y-109000000D03*
X165400000Y-104000000D03*
X171800000Y-110720000D03*
X171800000Y-103100000D03*
D17*
X184150000Y-108930000D03*
X177650000Y-108930000D03*
X184150000Y-104430000D03*
X177650000Y-104430000D03*
M02*
